<?xml version="1.0" encoding="UTF-8" standalone="no"?>
<!-- Created with Inkscape (http://www.inkscape.org/) -->

<!--
   width="113.21853mm"
   height="103.33494mm"
-->

<svg
   xmlns:dc="http://purl.org/dc/elements/1.1/"
   xmlns:cc="http://creativecommons.org/ns#"
   xmlns:rdf="http://www.w3.org/1999/02/22-rdf-syntax-ns#"
   xmlns:svg="http://www.w3.org/2000/svg"
   xmlns="http://www.w3.org/2000/svg"
   xmlns:sodipodi="http://sodipodi.sourceforge.net/DTD/sodipodi-0.dtd"
   xmlns:inkscape="http://www.inkscape.org/namespaces/inkscape"
   preserveAspectRatio="none"
   viewBox="0 0 113.21853 103.33494"
   version="1.1"
   id="svg8"
   inkscape:version="0.92.2 5c3e80d, 2017-08-06"
   sodipodi:docname="computer.svg"
   style="enable-background:new">
  <defs
     id="defs2">
    <filter
       inkscape:collect="always"
       style="color-interpolation-filters:sRGB"
       id="filter5724">
      <feBlend
         inkscape:collect="always"
         mode="color-burn"
         in2="BackgroundImage"
         id="feBlend5726" />
    </filter>
  </defs>
  <sodipodi:namedview
     id="base"
     pagecolor="#ffffff"
     bordercolor="#666666"
     borderopacity="1.0"
     inkscape:pageopacity="0.0"
     inkscape:pageshadow="2"
     inkscape:zoom="0.40622896"
     inkscape:cx="387.36798"
     inkscape:cy="-161.56919"
     inkscape:document-units="mm"
     inkscape:current-layer="layer12"
     showgrid="false"
     inkscape:window-width="1152"
     inkscape:window-height="669"
     inkscape:window-x="13"
     inkscape:window-y="67"
     inkscape:window-maximized="0"
     inkscape:measure-start="83.2143,829.643"
     inkscape:measure-end="100.714,761.071"
     inkscape:snap-global="true"
     fit-margin-top="0"
     fit-margin-left="0"
     fit-margin-right="0"
     fit-margin-bottom="0" />
  <metadata
     id="metadata5">
    <rdf:RDF>
      <cc:Work
         rdf:about="">
        <dc:format>image/svg+xml</dc:format>
        <dc:type
           rdf:resource="http://purl.org/dc/dcmitype/StillImage" />
        <dc:title></dc:title>
      </cc:Work>
    </rdf:RDF>
  </metadata>
  <g
     inkscape:groupmode="layer"
     id="layer10"
     inkscape:label="Layer 6"
     style="display:inline"
     transform="translate(-2.5088888,-2.4165435)">
    <path
       style="display:inline;opacity:1;fill:#d5d1ac;fill-opacity:1;stroke:#000000;stroke-width:0.72047901px;stroke-linecap:butt;stroke-linejoin:miter;stroke-opacity:1"
       d="m 107.3552,78.127953 c 0.32004,-3.57687 4.1385,-4.86382 5.81088,-7.39013 3.0075,-2.23058 1.90507,-4.84004 2.19267,-8.38036 -0.0294,-8.28492 0.14515,-16.607243 -0.3251,-24.83936 -0.90813,-5.145119 -0.68665,-10.4677 -1.13,-15.678219 0.17103,-3.486699 -0.50977,-7.268446 0.72755,-10.491847 -2.69794,0.358467 -4.90485,-1.312213 -7.45898,-1.273619"
       id="path5161"
       inkscape:connector-curvature="0" />
    <path
       style="display:inline;fill:#d5d1ac;fill-opacity:1;stroke:#000000;stroke-width:0.72053164px;stroke-linecap:butt;stroke-linejoin:miter;stroke-opacity:1"
       d="m 85.154617,96.369383 c 0.52109,3.24894 1.56952,2.18377 0.5669,5.299947 -3.21586,0.85139 -6.51836,2.1961 -10.21912,2.31524 -5.43756,0.36647 -10.86974,1.26697 -16.36702,1.28923 -4.49298,0.53629 -8.48426,-0.99719 -13.043477,-0.57912 -4.974923,0.32511 -12.891494,-1.24262 -14.615542,-1.84953 -4.10059,-0.29159 -6.029209,-3.969377 -4.274471,-6.975807"
       id="path5201"
       inkscape:connector-curvature="0"
       sodipodi:nodetypes="ccccccc" />
  </g>
  <g
     inkscape:groupmode="layer"
     id="layer9"
     inkscape:label="Layer 5"
     style="display:inline"
     transform="translate(-2.5088888,-2.4165435)">
    <path
       style="display:inline;fill:#d5d1ac;fill-opacity:1;stroke:#000000;stroke-width:0.72053164px;stroke-linecap:butt;stroke-linejoin:miter;stroke-opacity:1"
       d="m 32.385985,91.593333 c -1.277976,1.72797 -9.029681,5.055 -3.514189,5.27778 4.200534,1.27612 8.513458,2.55167 13.1724,2.79542 6.582061,-0.18407 12.995881,1.130307 19.591501,0.842997 5.32919,-0.1244 10.66819,-0.586847 15.96489,-1.044207 3.15881,-1.0384 6.95937,1.180477 5.46019,-3.27796"
       id="path5199"
       inkscape:connector-curvature="0"
       sodipodi:nodetypes="cccccc" />
  </g>
  <g
     inkscape:groupmode="layer"
     id="layer7"
     inkscape:label="Layer 3"
     style="display:inline"
     transform="translate(-2.5088888,-2.4165435)">
    <path
       style="display:inline;fill:#d5d1ac;fill-opacity:1;stroke:#000000;stroke-width:0.72053164px;stroke-linecap:butt;stroke-linejoin:miter;stroke-opacity:1"
       d="m 8.1322747,84.307853 c 1.101426,1.84334 -1.139198,6.54411 1.545319,6.60596 1.2723663,0.21274 6.8745943,0.86892 9.9742473,0.86151 7.212933,0.0728 14.565924,-0.17296 21.650591,0.18194 4.511095,1.19795 9.441955,0.33403 14.068105,1.54986 5.4533,-0.025 10.69782,1.64483 16.1372,1.90749 3.93834,1.78035 8.60853,0.86326 12.92295,1.09177 3.8037,0.0765 7.59961,-0.75231 11.26252,-1.57604 2.99646,-2.42928 6.933303,-3.5157 10.356433,-5.06831 -1.41384,-1.54282 -0.0926,-8.3916 -2.69691,-5.91121"
       id="path5187"
       inkscape:connector-curvature="0" />
    <path
       style="display:inline;fill:#d5d1ac;fill-opacity:1;stroke:#000000;stroke-width:0.73945373px;stroke-linecap:butt;stroke-linejoin:miter;stroke-opacity:1"
       d="m 99.482717,3.5106045 c 4.121693,0.534853 9.329863,-0.704091 7.905163,5.174696 -0.12255,6.1383415 0.65775,12.2501995 -0.20261,18.3736015 0.27682,5.204266 -0.18083,11.948312 -0.17947,15.511509 -0.20778,7.641368 0.0776,15.296752 0.2214,22.952832 0.44711,3.96852 0.62508,8.02576 0.56086,12.16913 2.37292,5.14477 -5.10422,5.15107 -6.78532,9.27531 -0.008,0.67328 -1.034363,0.53462 -0.97747,1.45235"
       id="path5159"
       inkscape:connector-curvature="0"
       sodipodi:nodetypes="cccccccc" />
  </g>
  <g
     inkscape:label="Layer 1"
     inkscape:groupmode="layer"
     id="layer1"
     style="display:inline"
     transform="translate(-2.5088888,-2.4165435)">
    <rect
       id="rect3718"
       width="68.413689"
       height="44.822346"
       x="44.752388"
       y="25.915476"
       style="fill:none;stroke-width:0.27992252" />
    <path
       style="display:inline;opacity:1;fill:#d5d1ac;fill-opacity:1;stroke:#000000;stroke-width:0.72053164px;stroke-linecap:butt;stroke-linejoin:miter;stroke-opacity:1"
       d="m 86.703507,2.7834645 c -0.68155,0.01443 -1.35932,0.08322 -2.03212,0.229381 -2.45669,0.07001 -4.55912,0.366366 -7.31368,0.235018 -2.87593,0.125542 -6.21436,-0.278506 -8.75193,0.257539 -7.34893,-0.04453 -14.69187,0.02533 -22.025469,0.249098 -6.006879,0.716971 -12.192413,-0.413973 -18.11743,1.097684 -4.273027,0.485924 -8.658472,-0.152231 -12.930165,0.498179 -2.978606,-0.135946 -6.7238943,-0.703442 -9.2022653,-0.558693 -0.24346,3.596579 0.509374,6.9051465 0.285685,10.5152625 -0.649446,4.602366 0.160046,9.425404 -1.115982,14.001112 -0.806764,5.40661 -0.323525,10.931228 -0.45596,16.400542 0.05937,5.32361 0.185318,10.749476 1.030139,16.089526 0.07162,6.12331 -0.201059,12.3157 0.25754,18.36793 -1.080762,4.2181 2.05768,4.81916 5.6615193,5.4279 5.585071,1.32977 11.432857,0.24499 17.070411,1.53677 9.883015,0.79865 19.832497,0.44705 29.764147,0.5221 3.41947,0.43041 6.89827,0.18481 10.31543,0.51507 6.14067,0.47428 12.33575,0.17296 18.50584,0.25754 2.62937,0.5402 5.76166,0.12693 8.60557,0.25754 4.795623,1.09755 3.832393,-3.94144 3.746203,-7.18139 0.0626,-8.02759 -0.259173,-16.08672 0.51507,-24.04915 7.2e-4,-5.580868 -0.0908,-11.176748 0.25612,-16.703112 0.50122,-5.605196 0.15351,-11.276941 0.25754,-16.914199 -0.91638,-3.598833 -1.510383,-7.211348 -1.286263,-11.064104 0.0381,-3.0990635 0.0161,-6.1921645 -0.25754,-9.2655835 -4.06495,1.082491 -8.14615,-0.605661 -12.09985,-0.719123 -0.22811,-0.0065 -0.45536,-0.0076 -0.68254,-0.0027 z"
       id="path5157"
       inkscape:connector-curvature="0" />
  </g>
  <g
     inkscape:groupmode="layer"
     id="layer2"
     inkscape:label="Layer 2"
     style="display:inline"
     transform="translate(-2.5088888,-2.4165435)">
    <path
       style="fill:#666666;fill-opacity:1;stroke:#000000;stroke-width:0.70268315px;stroke-linecap:butt;stroke-linejoin:miter;stroke-opacity:1"
       d="m 107.41508,14.306531 c 0,0 1.78946,0.458302 3.66125,0.633302 1.27882,0.119552 2.17238,-0.01525 2.82795,0.957532"
       id="path5163"
       inkscape:connector-curvature="0"
       sodipodi:nodetypes="csc" />
    <path
       style="fill:#666666;fill-opacity:1;stroke:#000000;stroke-width:0.72053164px;stroke-linecap:butt;stroke-linejoin:miter;stroke-opacity:1"
       d="m 107.17225,18.080792 c 2.28564,0.395207 5.14167,1.313798 6.91411,2.183627"
       id="path5165"
       inkscape:connector-curvature="0" />
    <path
       style="fill:#666666;fill-opacity:1;stroke:#000000;stroke-width:0.70728427px;stroke-linecap:butt;stroke-linejoin:miter;stroke-opacity:1"
       d="m 107.08015,23.721606 c 2.46644,-0.221892 4.63086,1.349617 7.18883,1.091814"
       id="path5167"
       inkscape:connector-curvature="0" />
    <path
       style="fill:#666666;fill-opacity:1;stroke:#000000;stroke-width:0.70783985px;stroke-linecap:butt;stroke-linejoin:miter;stroke-opacity:1"
       d="m 107.06563,28.497701 c 2.85633,1.37686 3.27678,1.340611 7.39706,1.444256"
       id="path5169"
       inkscape:connector-curvature="0"
       sodipodi:nodetypes="cc" />
    <path
       style="fill:none;fill-opacity:1;stroke:#000000;stroke-width:0.72053164px;stroke-linecap:butt;stroke-linejoin:miter;stroke-opacity:1"
       d="m 106.99028,33.365578 c 2.35881,-0.08725 4.80788,0.197192 7.09178,-0.197029 0.57008,-0.555566 0.44288,-1.470914 0.36785,-2.168528"
       id="path5171"
       inkscape:connector-curvature="0" />
    <path
       style="fill:none;fill-opacity:1;stroke:#000000;stroke-width:0.7002961px;stroke-linecap:butt;stroke-linejoin:miter;stroke-opacity:1"
       d="m 107.07985,39.006392 c 3.56615,-0.277123 3.2521,0.277022 7.73487,-1.819743"
       id="path5173"
       inkscape:connector-curvature="0"
       sodipodi:nodetypes="cc" />
    <path
       style="fill:#666666;fill-opacity:1;stroke:#000000;stroke-width:0.69772083px;stroke-linecap:butt;stroke-linejoin:miter;stroke-opacity:1"
       d="m 106.80673,44.46524 c 3.30232,0.255551 5.23598,-2.506677 8.19007,-3.275325"
       id="path5175"
       inkscape:connector-curvature="0" />
    <path
       style="fill:none;fill-opacity:1;stroke:#000000;stroke-width:0.70345712px;stroke-linecap:butt;stroke-linejoin:miter;stroke-opacity:1"
       d="m 106.80779,48.927769 c 2.88819,-1.455569 9.68795,-3.197453 8.18901,-7.737854"
       id="path5177"
       inkscape:connector-curvature="0"
       sodipodi:nodetypes="cc" />
    <path
       style="fill:#666666;fill-opacity:1;stroke:#000000;stroke-width:0.72053164px;stroke-linecap:butt;stroke-linejoin:miter;stroke-opacity:1"
       d="m 106.80834,55.019023 c 3.22097,-1.2227 5.21326,-4.434896 8.55169,-5.640926"
       id="path5179"
       inkscape:connector-curvature="0" />
    <path
       style="fill:none;fill-opacity:1;stroke:#000000;stroke-width:0.72053164px;stroke-linecap:butt;stroke-linejoin:miter;stroke-opacity:1"
       d="m 106.80834,61.569643 c 3.67418,-0.4469 5.40716,-5.11054 8.24383,-6.21468 l 0.20642,-0.1665 0.10185,-0.16952"
       id="path5181"
       inkscape:connector-curvature="0" />
    <path
       style="fill:#666666;fill-opacity:1;stroke:#000000;stroke-width:0.72053164px;stroke-linecap:butt;stroke-linejoin:miter;stroke-opacity:1"
       d="m 107.71813,66.482613 c 3.03059,-1.74088 4.77626,-4.4523 7.45955,-6.55064"
       id="path5183"
       inkscape:connector-curvature="0" />
    <path
       style="fill:none;fill-opacity:1;stroke:#000000;stroke-width:0.72053164px;stroke-linecap:butt;stroke-linejoin:miter;stroke-opacity:1"
       d="m 115.17872,59.931973 c 0.8636,4.87452 -3.46912,7.04554 -6.23212,10.17482 -0.0801,0.61233 -1.06456,0.46097 -1.0449,1.10694"
       id="path5185"
       inkscape:connector-curvature="0" />
    <path
       style="fill:#f12c00;fill-opacity:0;stroke:#000000;stroke-width:0.72053164px;stroke-linecap:butt;stroke-linejoin:miter;stroke-opacity:1"
       d="m 94.798857,88.681943 c -0.96911,1.41996 1.4296,7.6524 0.3635,6.36875"
       id="path5189"
       inkscape:connector-curvature="0" />
    <path
       style="fill:#f12c00;fill-opacity:0;stroke:#000000;stroke-width:0.72053164px;stroke-linecap:butt;stroke-linejoin:miter;stroke-opacity:1"
       d="m 76.784647,88.499983 c 0.079,2.66374 -0.18083,5.39268 0.18191,8.00632"
       id="path5191"
       inkscape:connector-curvature="0" />
    <path
       style="fill:#f12c00;fill-opacity:0;stroke:#000000;stroke-width:0.72053164px;stroke-linecap:butt;stroke-linejoin:miter;stroke-opacity:1"
       d="m 79.650527,90.137643 c -1.10602,3.44475 2.78466,1.8983 4.69547,2.2292 3.12124,1.20051 5.29395,-2.66237 1.17212,-2.27453 -1.94986,-0.0368 -3.92445,-0.14294 -5.86759,0.0453 z"
       id="path5193"
       inkscape:connector-curvature="0" />
    <path
       style="fill:#f12c00;fill-opacity:0;stroke:#000000;stroke-width:0.72053164px;stroke-linecap:butt;stroke-linejoin:miter;stroke-opacity:1"
       d="m 78.922687,90.092153 c -1.6295,5.32614 7.41429,2.78039 9.90543,2.60476 2.05783,-5.68208 -8.51823,-3.33377 -9.99623,-2.24151"
       id="path5195"
       inkscape:connector-curvature="0" />
    <path
       style="fill:#f12c00;fill-opacity:0;stroke:#000000;stroke-width:0.72053164px;stroke-linecap:butt;stroke-linejoin:miter;stroke-opacity:1"
       d="m 32.385985,91.593333 c -1.125092,5.18538 5.38856,3.36796 8.673286,4.36713 9.052036,0.0296 18.125676,0.44298 27.171806,0 0.78874,-0.0387 2.48789,-0.53332 3.27666,-0.54585"
       id="path5197"
       inkscape:connector-curvature="0"
       sodipodi:nodetypes="cccc" />
  </g>
  <g
     inkscape:groupmode="layer"
     id="layer13"
     inkscape:label="Layer 9"
     style="display:inline"
     transform="translate(-2.5088888,-2.4165435)">
    <path
       style="display:inline;fill:#000000;fill-opacity:1;stroke:#000000;stroke-width:0.26458332px;stroke-linecap:butt;stroke-linejoin:miter;stroke-opacity:1;filter:url(#filter5724)"
       d="m 57.656266,54.430592 c -0.20596,1.968607 -0.37377,4.008726 -0.0486,5.964408 0.13086,0.740554 0.11622,1.697229 0.11536,2.545635 0.024,3.111886 0.18492,6.213841 0.1336,9.330264 -0.0907,1.107341 -0.15575,2.236636 -0.2004,3.34164 0.22696,0.83029 -0.70141,2.5097 0.72085,2.32972 1.27987,0.145535 2.73272,0.539782 4.13439,0.475901 1.42764,0.132638 2.88372,0.02102 4.34424,0.13363 2.37451,-0.233043 4.75829,0.170784 7.1266,0 2.29493,0.04248 4.57186,-0.239642 6.87058,-0.142383 2.3132,0.03687 4.64478,0.13842 6.93696,0.0088 -0.0347,-2.241748 0.26877,-4.499174 0.0875,-6.735436 -0.19646,-1.394781 0.26094,-2.808359 0.046,-4.222762 -0.004,-1.102278 0.0668,-2.206607 -0.20044,-3.274062 0.28396,-2.993665 0.0658,-6.011592 0.14022,-9.014882 0.23254,-1.624856 -1.46387,-1.002782 -2.60776,-1.251406 -1.55564,-0.04134 -3.11344,0.136795 -4.66978,-0.02279 -2.10376,0.04051 -4.30477,-0.0939 -6.33812,0.103017 -2.19181,0.27046 -4.44128,0.129891 -6.665,0.162197 -1.73852,-0.246114 -3.4568,0.276487 -5.17686,0.413221 -1.45326,0.153284 -2.92044,-0.01449 -4.3727,-0.01487 z"
       id="path5155"
       inkscape:connector-curvature="0"
       sodipodi:nodetypes="cccccccccccccccccccccc"
       transform="matrix(2.7232695,0,0,2.7232695,-145.55316,-134.15153)" />
  </g>
  <g
     inkscape:groupmode="layer"
     id="layer12"
     inkscape:label="Layer 8"
     style="display:inline"
     transform="translate(-2.5088888,-2.4165435)">
    <path
       style="display:inline;opacity:1;fill:#181818;fill-opacity:1;fill-rule:nonzero;stroke:#000000;stroke-width:0.72053164px;stroke-linecap:butt;stroke-linejoin:miter;stroke-opacity:1"
       d="m 60.581417,13.901039 c -2.40243,0.01934 -4.79472,0.246129 -7.09273,0.540401 -3.52478,0.08908 -7.095198,-0.202312 -10.582811,0.197028 -3.180397,0.342808 -6.846225,0.597055 -10.28868,0.53055 -3.349298,0.05302 -6.326174,0.536392 -9.756734,0.364488 -3.174433,-0.129927 -6.414914,-0.395261 -9.579411,0 h -0.0014 c -0.408088,7.758736 -0.09559,15.539735 0,23.290626 -0.561677,3.432618 0.274081,7.22604 -0.489739,10.489924 -0.801867,6.364057 -0.259882,13.046587 -0.41937,19.555687 0.04763,2.2806 -0.184665,4.75277 0.485515,6.7972 3.82755,0.60651 7.850935,-0.15128 11.521467,1.00621 4.471418,1.42987 9.021799,-0.37085 13.64929,0.36308 5.192815,0.52774 10.262913,0.11691 15.466103,0.18153 5.13219,-0.42184 10.43856,-1.03241 15.4661,0.18295 5.82532,0.58847 11.63806,0.60546 17.46585,1.2736 3.1014,0.17184 6.62642,0.51456 5.09439,-4.0361 -0.30754,-3.38336 0.58173,-4.46179 0.36449,-7.67394 -0.30373,-4.91366 -0.028,-9.88394 -0.34057,-14.787794 -0.56145,-4.293525 0.0709,-8.787764 -0.0226,-13.170814 -0.34351,-5.018158 0.7946,-9.836542 0.19983,-14.766678 -0.27042,-2.761431 0.46867,-5.906551 -0.49536,-8.414176 -3.29592,0.05555 -6.50853,-0.998051 -9.90449,-0.655798 -4.5648,0.04085 -9.01516,-0.874085 -13.58456,-0.565732 -2.33932,-0.533489 -4.75222,-0.721593 -7.15466,-0.702239 z"
       id="path5153"
       inkscape:connector-curvature="0" />
  </g>
</svg>
