<?xml version="1.0" encoding="UTF-8" standalone="no"?>
<!-- Created with Inkscape (http://www.inkscape.org/) -->

<svg
   xmlns:dc="http://purl.org/dc/elements/1.1/"
   xmlns:cc="http://creativecommons.org/ns#"
   xmlns:rdf="http://www.w3.org/1999/02/22-rdf-syntax-ns#"
   xmlns:svg="http://www.w3.org/2000/svg"
   xmlns="http://www.w3.org/2000/svg"
   xmlns:sodipodi="http://sodipodi.sourceforge.net/DTD/sodipodi-0.dtd"
   xmlns:inkscape="http://www.inkscape.org/namespaces/inkscape"
   viewBox="0 0 29.223714 19.360608"
   version="1.1"
   id="svg6630"
   sodipodi:docname="githubKey1.svg"
   inkscape:version="0.92.2 5c3e80d, 2017-08-06"
   preserveAspectRatio="none"
   height="100%"
   width="100%">
  <defs
     id="defs6624" />
  <sodipodi:namedview
     id="base"
     pagecolor="#ffffff"
     bordercolor="#666666"
     borderopacity="1.0"
     inkscape:pageopacity="0.0"
     inkscape:pageshadow="2"
     inkscape:zoom="22.4"
     inkscape:cx="15.886401"
     inkscape:cy="9.4293151"
     inkscape:document-units="mm"
     inkscape:current-layer="layer1"
     showgrid="false"
     inkscape:window-width="1144"
     inkscape:window-height="700"
     inkscape:window-x="26"
     inkscape:window-y="45"
     inkscape:window-maximized="0"
     fit-margin-top="0"
     fit-margin-left="0"
     fit-margin-right="0"
     fit-margin-bottom="0"
     inkscape:snap-global="false" />
  <metadata
     id="metadata6627">
    <rdf:RDF>
      <cc:Work
         rdf:about="">
        <dc:format>image/svg+xml</dc:format>
        <dc:type
           rdf:resource="http://purl.org/dc/dcmitype/StillImage" />
        <dc:title></dc:title>
      </cc:Work>
    </rdf:RDF>
  </metadata>
  <g
     inkscape:groupmode="layer"
     id="layer1"
     inkscape:label="Layer 3"
     transform="translate(0.17065492,0.00312935)"
     sodipodi:insensitive="true">
    <path
       style="fill:#1b1f23;fill-opacity:1;stroke:#000000;stroke-width:1px;stroke-linecap:butt;stroke-linejoin:miter;stroke-opacity:1"
       d="M 1.894036,11.528274 C 2.3294598,10.463498 3.3404059,9.7561999 3.7256483,8.6529132 4.4565424,7.212151 5.4421595,5.9183379 6.0208536,4.402092 6.6143565,3.3406364 7.3542489,2.3460528 7.7769992,1.1975382 8.6156611,-0.00191795 10.136342,0.68412441 11.308258,0.75678227 12.4109,0.97562732 13.539195,0.93799198 14.65778,1.0544129 c 1.588984,0.1244472 3.184836,0.2967861 4.784302,0.272429 2.051683,0.1952104 4.084321,0.5281587 6.094524,0.9809846 1.078875,0.5926551 1.862184,1.628136 2.640934,2.5677298 0.931106,0.8782525 -0.109896,1.9603317 -0.547036,2.7927564 -1.197359,2.4436763 -3.116426,4.4255353 -4.474548,6.7718293 -1.07796,1.635187 -2.770733,2.701201 -4.269338,3.913688 -1.216264,0.888447 -2.743152,0.303585 -4.11797,0.433082 -1.668232,0.04151 -3.326423,-0.120137 -4.9834419,-0.26793 C 8.4695826,18.550787 7.1643022,18.180953 5.8733518,18.040828 4.5426893,17.919583 3.2233704,17.723425 1.9020899,17.615721 0.16699275,17.89565 0.02733194,16.120953 0.73372939,14.986914 1.2686786,13.881766 1.3282667,12.603024 1.894036,11.528274 Z"
       id="path116"
       inkscape:connector-curvature="0" />
  </g>
  <g
     inkscape:groupmode="layer"
     id="layer2"
     inkscape:label="Layer 4"
     transform="translate(0.17065492,0.00312935)"
     style="display:none"
     sodipodi:insensitive="true">
    <path
       style="fill:none;stroke:#000000;stroke-width:1px;stroke-linecap:butt;stroke-linejoin:miter;stroke-opacity:1"
       d="m 1.9571705,11.528274 c 3.1549039,0.396925 6.2457354,1.271184 9.4357155,1.378234 2.34779,0.28202 4.668022,0.845879 7.035684,0.928601 1.208204,-0.442978 1.614849,-1.859818 2.363251,-2.800981 0.818802,-1.2826099 1.813769,-2.4581001 2.352751,-3.9007461 0.567745,-1.0558566 1.215198,-2.0714338 1.735704,-3.1551654 0.181027,-0.4591486 0.463823,-0.8808903 0.625936,-1.3519211"
       id="path119"
       inkscape:connector-curvature="0" />
    <path
       style="fill:none;stroke:#000000;stroke-width:1px;stroke-linecap:butt;stroke-linejoin:miter;stroke-opacity:1"
       d="m 18.498418,18.662477 c 0.110071,-1.176151 -0.173788,-2.315335 -0.311584,-3.467121 -0.04554,-0.44991 -0.115495,-0.900094 -0.256606,-1.331015"
       id="path121"
       inkscape:connector-curvature="0" />
  </g>
  <g
     inkscape:groupmode="layer"
     id="layer4"
     inkscape:label="Layer 6">
    <ellipse
       style="fill:#ffffff;fill-opacity:1;fill-rule:evenodd;stroke:none;stroke-width:0.53353041;stroke-miterlimit:4;stroke-dasharray:none;stroke-opacity:1"
       id="path1700"
       cx="14.732498"
       cy="9.9833345"
       rx="8.2104721"
       ry="7.7344155" />
  </g>
  <g
     inkscape:groupmode="layer"
     id="layer3"
     inkscape:label="Layer 5">
    <g
       style="fill:none;fill-rule:evenodd"
       id="g1687"
       transform="matrix(0.01618164,0,0,0.01612282,6.4227902,1.5062444)">
      <path
         id="path1676"
         transform="scale(64)"
         d="M 8,0 C 3.58,0 0,3.58 0,8 c 0,3.54 2.29,6.53 5.47,7.59 0.4,0.07 0.55,-0.17 0.55,-0.38 0,-0.19 -0.01,-0.82 -0.01,-1.49 C 4,14.09 3.48,13.23 3.32,12.78 3.23,12.55 2.84,11.84 2.5,11.65 2.22,11.5 1.82,11.13 2.49,11.12 3.12,11.11 3.57,11.7 3.72,11.94 4.44,13.15 5.59,12.81 6.05,12.6 6.12,12.08 6.33,11.73 6.56,11.53 4.78,11.33 2.92,10.64 2.92,7.58 2.92,6.71 3.23,5.99 3.74,5.43 3.66,5.23 3.38,4.41 3.82,3.31 c 0,0 0.67,-0.21 2.2,0.82 0.64,-0.18 1.32,-0.27 2,-0.27 0.68,0 1.36,0.09 2,0.27 1.53,-1.04 2.2,-0.82 2.2,-0.82 0.44,1.1 0.16,1.92 0.08,2.12 0.51,0.56 0.82,1.27 0.82,2.15 0,3.07 -1.87,3.75 -3.65,3.95 0.29,0.25 0.54,0.73 0.54,1.48 0,1.07 -0.01,1.93 -0.01,2.2 0,0.21 0.15,0.46 0.55,0.38 C 13.71,14.53 16,11.53 16,8 16,3.58 12.42,0 8,0 Z"
         inkscape:connector-curvature="0"
         style="clip-rule:evenodd;fill:#1b1f23;fill-rule:evenodd" />
    </g>
  </g>
</svg>
