<?xml version="1.0" encoding="UTF-8" standalone="no"?>
<!-- Created with Inkscape (http://www.inkscape.org/) -->

<svg
   xmlns:dc="http://purl.org/dc/elements/1.1/"
   xmlns:cc="http://creativecommons.org/ns#"
   xmlns:rdf="http://www.w3.org/1999/02/22-rdf-syntax-ns#"
   xmlns:svg="http://www.w3.org/2000/svg"
   xmlns="http://www.w3.org/2000/svg"
   xmlns:sodipodi="http://sodipodi.sourceforge.net/DTD/sodipodi-0.dtd"
   xmlns:inkscape="http://www.inkscape.org/namespaces/inkscape"
   viewBox="0 0 29.223714 19.360608"
   version="1.1"
   id="svg6630"
   sodipodi:docname="githubKey4.svg"
   inkscape:version="0.92.2 5c3e80d, 2017-08-06"
   preserveAspectRatio="none"
   height="100%"
   width="100%">
  <defs
     id="defs6624" />
  <sodipodi:namedview
     id="base"
     pagecolor="#ffffff"
     bordercolor="#666666"
     borderopacity="1.0"
     inkscape:pageopacity="0.0"
     inkscape:pageshadow="2"
     inkscape:zoom="15.839192"
     inkscape:cx="1.0480805"
     inkscape:cy="8.5274506"
     inkscape:document-units="mm"
     inkscape:current-layer="layer1"
     showgrid="false"
     inkscape:window-width="1144"
     inkscape:window-height="700"
     inkscape:window-x="13"
     inkscape:window-y="31"
     inkscape:window-maximized="0"
     fit-margin-top="0"
     fit-margin-left="0"
     fit-margin-right="0"
     fit-margin-bottom="0"
     inkscape:snap-global="false" />
  <metadata
     id="metadata6627">
    <rdf:RDF>
      <cc:Work
         rdf:about="">
        <dc:format>image/svg+xml</dc:format>
        <dc:type
           rdf:resource="http://purl.org/dc/dcmitype/StillImage" />
        <dc:title />
      </cc:Work>
    </rdf:RDF>
  </metadata>
  <g
     inkscape:groupmode="layer"
     id="layer1"
     inkscape:label="Layer 3"
     transform="translate(0.17065492,0.00312935)">
    <path
       style="fill:#ffffff;fill-opacity:0;stroke:#000000;stroke-width:1px;stroke-linecap:butt;stroke-linejoin:miter;stroke-opacity:1"
       d="M 1.894036,11.528274 C 2.3294598,10.463498 3.3404059,9.7561999 3.7256483,8.6529132 4.4565424,7.212151 5.4421595,5.9183379 6.0208536,4.402092 6.6143565,3.3406364 7.3542489,2.3460528 7.7769992,1.1975382 8.6156611,-0.00191795 10.136342,0.68412441 11.308258,0.75678227 12.4109,0.97562732 13.539195,0.93799198 14.65778,1.0544129 c 1.588984,0.1244472 3.184836,0.2967861 4.784302,0.272429 2.051683,0.1952104 4.084321,0.5281587 6.094524,0.9809846 1.078875,0.5926551 1.862184,1.628136 2.640934,2.5677298 0.931106,0.8782525 -0.109896,1.9603317 -0.547036,2.7927564 -1.197359,2.4436763 -3.116426,4.4255353 -4.474548,6.7718293 -1.07796,1.635187 -2.770733,2.701201 -4.269338,3.913688 -1.216264,0.888447 -2.743152,0.303585 -4.11797,0.433082 -1.668232,0.04151 -3.326423,-0.120137 -4.9834419,-0.26793 C 8.4695826,18.550787 7.1643022,18.180953 5.8733518,18.040828 4.5426893,17.919583 3.2233704,17.723425 1.9020899,17.615721 0.16699275,17.89565 0.02733194,16.120953 0.73372939,14.986914 1.2686786,13.881766 1.3282667,12.603024 1.894036,11.528274 Z"
       id="path116"
       inkscape:connector-curvature="0" />
    <path
       id="path3134"
       d="m 13.216417,17.717774 a 1.4014139,1.4014139 0 0 1 -1.406288,-1.391665 l -0.0056,-0.996033 c -2.7638211,0.601103 -3.3468149,-1.172257 -3.3468149,-1.172257 -0.4520461,-1.147875 -1.1033,-1.452958 -1.1033,-1.452958 -0.901307,-0.61712 0.068256,-0.604586 0.068256,-0.604586 0.996731,0.06966 1.5219144,1.023898 1.5219144,1.023898 0.8859822,1.518431 2.3243115,1.079619 2.8905885,0.826083 0.08915,-0.6422 0.34687,-1.080315 0.631054,-1.328976 -2.2066,-0.250749 -4.5260349,-1.103299 -4.5260349,-4.909128 0,-1.0844937 0.3879649,-1.9704759 1.0238939,-2.6663095 C 8.8610048,4.7950941 8.5210948,3.7851303 9.060204,2.4171487 c 0,0 0.8344395,-0.2667705 2.73248,1.0183225 a 9.5319827,9.5319827 0 0 1 2.486603,-0.3343333 c 0.843497,0.00349 1.693956,0.1135351 2.487997,0.3343333 1.896645,-1.285093 2.729692,-1.0183225 2.729692,-1.0183225 0.540505,1.3686769 0.200601,2.3786417 0.09751,2.6286938 0.636625,0.6951352 1.022502,1.5818158 1.022502,2.6663095 0,3.815579 -2.324314,4.655593 -4.535789,4.901465 0.355925,0.308563 0.673542,0.912453 0.673542,1.839531 0,1.329672 -0.0049,1.872266 -0.0049,1.872266 a 1.4021104,1.4021104 0 0 1 -1.404899,1.39236 z"
       inkscape:connector-curvature="0"
       style="stroke-width:0.01564467" />
  </g>
  <g
     inkscape:groupmode="layer"
     id="layer2"
     inkscape:label="Layer 4"
     transform="translate(0.17065492,0.00312935)" />
</svg>
