<?xml version="1.0" encoding="UTF-8" standalone="no"?>
<!-- Created with Inkscape (http://www.inkscape.org/) -->

<svg
   xmlns:dc="http://purl.org/dc/elements/1.1/"
   xmlns:cc="http://creativecommons.org/ns#"
   xmlns:rdf="http://www.w3.org/1999/02/22-rdf-syntax-ns#"
   xmlns:svg="http://www.w3.org/2000/svg"
   xmlns="http://www.w3.org/2000/svg"
   xmlns:sodipodi="http://sodipodi.sourceforge.net/DTD/sodipodi-0.dtd"
   xmlns:inkscape="http://www.inkscape.org/namespaces/inkscape"
   viewBox="0 0 28.947196 19.167552"
   version="1.1"
   id="svg6630"
   sodipodi:docname="key.svg"
   inkscape:version="0.92.2 5c3e80d, 2017-08-06"
   preserveAspectRatio="none">
  <defs
     id="defs6624" />
  <sodipodi:namedview
     id="base"
     pagecolor="#ffffff"
     bordercolor="#666666"
     borderopacity="1.0"
     inkscape:pageopacity="0.0"
     inkscape:pageshadow="2"
     inkscape:zoom="3.959798"
     inkscape:cx="59.892489"
     inkscape:cy="30.606914"
     inkscape:document-units="mm"
     inkscape:current-layer="layer16"
     showgrid="false"
     inkscape:window-width="1144"
     inkscape:window-height="700"
     inkscape:window-x="26"
     inkscape:window-y="45"
     inkscape:window-maximized="0"
     fit-margin-top="0"
     fit-margin-left="0"
     fit-margin-right="0"
     fit-margin-bottom="0" />
  <metadata
     id="metadata6627">
    <rdf:RDF>
      <cc:Work
         rdf:about="">
        <dc:format>image/svg+xml</dc:format>
        <dc:type
           rdf:resource="http://purl.org/dc/dcmitype/StillImage" />
        <dc:title></dc:title>
      </cc:Work>
    </rdf:RDF>
  </metadata>
  <path
     style="fill:#d5d1ac;fill-opacity:1;stroke:#000000;stroke-width:1;stroke-linecap:butt;stroke-linejoin:miter;stroke-miterlimit:4.05000019;stroke-dasharray:none;stroke-opacity:1"
     d="m 1.6249923,11.971955 c 0.72834,-1.00802 1.56058,-2.5661897 2.24388,-3.6024597 0.43339,-1.06636 1.14598,-1.96053 1.6584,-2.98224 0.80878,-1.39871 1.44257,-2.89714 2.36138,-4.2344 0.5735,-1.2594 2.3116197,-0.27219 3.3924307,-0.45369 1.57882,0.28185 3.18932,0.25804 4.77335,0.48946 2.58141,0.36142 5.23286,0.23217 7.76677,0.92804 0.54758,0.16201 1.66837,0.16903 2.07506,0.58465 0.18537,0.18944 0.23329,-0.41259 0,0 -0.71049,0.73005 -1.332384,2.4521405 -1.962304,3.2713005 -0.40172,0.93544 -0.736106,1.8945595 -1.362596,2.6706095 -0.90295,1.19388 -2.16328,2.8511467 -2.8568,4.1819467 -0.72714,0.89793 -1.263661,1.225882 -2.614781,0.970132 -1.59231,-0.3846 -2.34838,-0.421065 -3.94949,-0.759495 -1.51896,-0.0388 -3.3610179,-0.42626 -4.8665377,-0.62708 -1.4924,-0.10691 -3.592704,-0.54516 -5.078214,-0.70122 -0.38608,-0.27861 -2.29476302,1.044736 -1.580598,0.264446 z"
     id="path7417"
     inkscape:connector-curvature="0"
     sodipodi:nodetypes="cccccccscccccccccc" />
  <path
     style="fill:#d5d1ac;fill-opacity:1;stroke:#000000;stroke-width:1;stroke-linecap:butt;stroke-linejoin:miter;stroke-miterlimit:4.05000019;stroke-dasharray:none;stroke-opacity:1"
     d="m 18.219143,18.547765 c 1.51994,-0.82392 2.921259,-1.869898 3.993509,-3.229348 1.12923,-1.2704 1.731627,-2.414165 2.612957,-3.890285 0.69354,-1.09665 1.49738,-2.2002267 2.0815,-3.3613167 0.21808,-1.0026 2.379594,-2.062 1.185714,-2.95822 -0.58947,-0.69492 -1.50014,-1.81036 -2.19656,-2.40728"
     id="path7421"
     inkscape:connector-curvature="0"
     sodipodi:nodetypes="cccccc" />
  <g
     inkscape:groupmode="layer"
     id="layer17"
     inkscape:label="Layer 2"
     style="display:none"
     transform="translate(-8.5826217,1.5713825)">
    <path
       style="opacity:1;fill:#d5d1ac;fill-opacity:1;fill-rule:nonzero;stroke:#6a6756;stroke-width:0;stroke-miterlimit:4.05000019;stroke-dasharray:none;stroke-opacity:1;paint-order:normal"
       d="m 25.409614,12.487093 c -0.2205,-0.0501 -1.13352,-0.16875 -2.02894,-0.26361 -0.89542,-0.0949 -1.78242,-0.20199 -1.97112,-0.23804 -0.18869,-0.0361 -0.8843,-0.0944 -1.54579,-0.12971 -0.66149,-0.0353 -1.35305,-0.08 -1.5368,-0.0993 -2.65063,-0.27903 -3.17759,-0.35755 -6.28083,-0.93587 -0.294,-0.0548 -0.79586,-0.0996 -1.11525,-0.0996 -0.31939,3e-5 -0.59658,-0.0256 -0.61597,-0.057 -0.0194,-0.0314 0.118,-0.29287 0.30533,-0.5811 0.60268,-0.9272699 1.99165,-3.2464402 2.12535,-3.5487002 0.0713,-0.16116 0.41212,-0.7659 0.7574,-1.34384 0.67774,-1.13444 0.83274,-1.41462 1.81416,-3.27922 0.74985,-1.42465998 1.44008,-2.54366995 1.64893,-2.67327995 0.2331,-0.14465 0.84053,-0.16391 1.54391,-0.0489 0.35791,0.0585 0.80893,0.10661 1.00226,0.10691 0.19333,2.6e-4 0.68226,0.0434 1.0865,0.0957 0.40425,0.0524 1.20105,0.12868 1.77066,0.16962 0.56962,0.0409 1.51676,0.13188 2.10475,0.20211 0.58799,0.0702 1.68547,0.17418997 2.43884,0.23103997 2.93441,0.2214 3.83669,0.32804 4.87766,0.57645 0.31238,0.0745 0.89795,0.19549 1.30127,0.26877 1.44784,0.26303998 1.66304,0.53544998 1.04056,1.31711998 -0.10759,0.1351 -0.41705,0.68162 -0.6877,1.21449 -0.8686,1.71015 -0.93129,1.80529 -2.27623,3.45429 -0.73309,0.89883 -1.54606,2.0593803 -2.13128,3.0424903 -1.11701,1.8764599 -2.02945,2.7345999 -2.8891,2.7171699 -0.18572,-0.004 -0.51808,-0.0479 -0.73857,-0.098 z"
       id="path7489"
       inkscape:connector-curvature="0" />
    <path
       style="opacity:1;fill:#d5d1ac;fill-opacity:1;fill-rule:nonzero;stroke:#6a6756;stroke-width:0;stroke-miterlimit:4.05000019;stroke-dasharray:none;stroke-opacity:1;paint-order:normal"
       d="m 27.179044,16.383803 c -7.9e-4,-0.0827 -0.10854,-0.40591 -0.2397,-0.71828 -0.39939,-0.95116 -0.5695,-1.47797 -0.66335,-2.05433 -0.0494,-0.30302 -0.10839,-0.58114 -0.13121,-0.61806 -0.0228,-0.0369 0.015,-0.0671 0.084,-0.0671 0.2957,0 0.83531,-0.22354 1.19683,-0.49581 0.43173,-0.32514 1.32135,-1.37715 1.55872,-1.84324 0.47057,-0.9239999 1.73116,-2.7257302 2.82486,-4.0375002 0.76757,-0.92062 1.41412,-1.9409 1.9775,-3.12061 0.18488,-0.38712 0.4589,-0.86667 0.60893,-1.06567 0.15004,-0.19899 0.29006,-0.42946 0.31116,-0.51215 0.0211,-0.0827 0.0588,-0.15034 0.0838,-0.15034 0.0597,0 0.54527,0.51174 1.0777,1.1359 0.23512,0.27562 0.57503,0.66095 0.75536,0.85629 0.32155,0.34831 0.32729,0.36204 0.29823,0.7125 -0.0234,0.28248 -0.10682,0.48802 -0.39812,0.98118 -0.20267,0.34312 -0.42037,0.75916 -0.48378,0.92453 -0.1647,0.42955 -0.53523,1.04176 -1.59736,2.6392903 -1.12436,1.6911099 -1.38421,2.0215899 -2.70574,3.4410899 -2.22388,2.38876 -2.51457,2.68811 -2.97604,3.06467 -0.46443,0.37898 -1.46431,1.07801 -1.54197,1.07801 -0.0212,0 -0.0391,-0.0676 -0.0397,-0.15034 z"
       id="path7487"
       inkscape:connector-curvature="0" />
    <path
       style="opacity:1;fill:#d5d1ac;fill-opacity:1;fill-rule:nonzero;stroke:#6a6756;stroke-width:0;stroke-miterlimit:4.05000019;stroke-dasharray:none;stroke-opacity:1;paint-order:normal"
       d="m 25.576654,16.821643 c -0.23887,-0.0115 -0.9154,-0.0658 -1.50339,-0.12066 -0.588,-0.0549 -1.55017,-0.11508 -2.13816,-0.13373 -0.58799,-0.0187 -2.00118,-0.12201 -3.14042,-0.22968 -2.58644,-0.24444 -4.26748,-0.38169 -5.81311,-0.47463 -0.66149,-0.0398 -1.60863,-0.13038 -2.10475,-0.20133 -0.49611,-0.071 -0.9806603,-0.12917 -1.0767753,-0.12936 -0.0961,-2.1e-4 -0.25396,-0.0627 -0.35079,-0.13885 -0.24444,-0.19228 -0.23218,-0.51777 0.0565,-1.49868 0.12787,-0.43459 0.26209,-1.07839 0.29826,-1.43068 0.0362,-0.35229 0.120535,-0.82036 0.187465,-1.04016 l 0.1217003,-0.39964 0.79559,0.022 c 0.43758,0.0121 0.85746,0.0451 0.93309,0.0733 0.0756,0.0282 0.3179,0.0734 0.53839,0.10026 0.2205,0.0269 0.94213,0.15243 1.60362,0.27893 1.46342,0.27986 3.58386,0.53359 5.24517,0.62763 0.67986,0.0385 1.68714,0.1292 2.23838,0.20159 0.55124,0.0724 1.47344,0.17668 2.04933,0.23177 1.30805,0.12512 2.12069,0.26477 2.24104,0.38513 0.051,0.051 0.13353,0.36435 0.18342,0.69634 0.0499,0.332 0.13439,0.69026 0.1878,0.79615 0.0534,0.10589 0.11868,0.28222 0.14507,0.39186 0.0264,0.10964 0.16591,0.47643 0.31006,0.8151 0.31592,0.74229 0.34107,1.06358 0.0907,1.15878 -0.0943,0.0358 -0.28218,0.0594 -0.4176,0.0523 -0.13542,-0.007 -0.44166,-0.0223 -0.68053,-0.0337 z"
       id="path7485"
       inkscape:connector-curvature="0" />
  </g>
  <g
     inkscape:groupmode="layer"
     id="layer16"
     inkscape:label="Layer 1"
     transform="translate(-8.5826217,1.5713825)"
     style="display:inline">
    <path
       transform="translate(8.733927,-1.4209894)"
       style="fill:#d5d1ac;fill-opacity:1;stroke:#000000;stroke-width:1;stroke-linecap:butt;stroke-linejoin:miter;stroke-miterlimit:4.05000019;stroke-dasharray:none;stroke-opacity:1"
       d="m 1.473687,11.821562 c -0.4019853,0.95711 -0.52856531,1.22262 -0.58735531,2.32346 -0.0216,1.05454 -1.42458,3.01357 0.40971531,2.97136 1.90825,0.40361 3.86761,0.2879 5.79436,0.55405 1.88018,0.0818 3.74334,0.35414 5.61633,0.48889 1.67026,-0.0873 3.31456,0.29994 4.9855,0.26313 0.759084,0.588736 0.589478,-1.714456 0.345155,-3.155358 -0.09581,-0.565055 -0.270405,-1.070939 -0.270405,-1.070939"
       id="path7419"
       inkscape:connector-curvature="0"
       sodipodi:nodetypes="ccccccsc" />
    <path
       style="opacity:1;fill:#d5d1ac;fill-opacity:1;fill-rule:nonzero;stroke:#000000;stroke-width:0;stroke-miterlimit:4.05000019;stroke-dasharray:none;stroke-opacity:1;paint-order:normal"
       d="m 70.840825,63.182781 c -0.05399,-0.374921 -0.148162,-1.244175 -0.209277,-1.931675 -0.165294,-1.859423 -0.594247,-4.460337 -0.998154,-6.052207 -0.196678,-0.775143 -0.292697,-1.464986 -0.213375,-1.532985 0.07932,-0.068 0.546007,-0.268734 1.037078,-0.446077 2.067122,-0.746511 4.53306,-3.062074 5.847014,-5.490458 1.393013,-2.574496 7.709934,-11.730848 7.936647,-11.504136 0.06504,0.06504 -13.043554,27.351244 -13.250954,27.582538 -0.02795,0.03117 -0.09499,-0.250076 -0.148979,-0.625 z"
       id="path7529"
       inkscape:connector-curvature="0"
       transform="matrix(0.26458333,0,0,0.26458333,8.733927,-1.4209894)" />
  </g>
</svg>
