<?xml version="1.0" encoding="UTF-8" standalone="no"?>
<!-- Created with Inkscape (http://www.inkscape.org/) -->

<svg
   xmlns:dc="http://purl.org/dc/elements/1.1/"
   xmlns:cc="http://creativecommons.org/ns#"
   xmlns:rdf="http://www.w3.org/1999/02/22-rdf-syntax-ns#"
   xmlns:svg="http://www.w3.org/2000/svg"
   xmlns="http://www.w3.org/2000/svg"
   xmlns:xlink="http://www.w3.org/1999/xlink"
   xmlns:sodipodi="http://sodipodi.sourceforge.net/DTD/sodipodi-0.dtd"
   xmlns:inkscape="http://www.inkscape.org/namespaces/inkscape"
   viewBox="0 0 29.223714 19.360608"
   version="1.1"
   id="svg6630"
   sodipodi:docname="key_instagram_pressed.svg"
   inkscape:version="0.92.2 5c3e80d, 2017-08-06"
   preserveAspectRatio="none"
   height="100%"
   width="100%">
  <defs
     id="defs6624">
    <linearGradient
       id="b">
      <stop
         id="stop1873"
         stop-color="#3771c8"
         offset="0" />
      <stop
         id="stop1875"
         offset=".128"
         stop-color="#3771c8" />
      <stop
         id="stop1877"
         stop-opacity="0"
         stop-color="#60f"
         offset="1" />
    </linearGradient>
    <linearGradient
       id="a">
      <stop
         id="stop1880"
         stop-color="#fd5"
         offset="0" />
      <stop
         id="stop1882"
         stop-color="#fd5"
         offset=".1" />
      <stop
         id="stop1884"
         stop-color="#ff543e"
         offset=".5" />
      <stop
         id="stop1886"
         stop-color="#c837ab"
         offset="1" />
    </linearGradient>
    <radialGradient
       fy="578.088"
       fx="158.429"
       gradientTransform="matrix(0.10126265,-0.31604057,0.33851157,0.0827785,-206.73332,24.013464)"
       gradientUnits="userSpaceOnUse"
       xlink:href="#a"
       r="65"
       cy="578.088"
       cx="158.429"
       id="c" />
    <radialGradient
       fy="473.45499"
       fx="147.694"
       gradientTransform="matrix(-0.01245165,0.14633219,-0.69420509,-0.04643896,331.8484,-1.1881155)"
       gradientUnits="userSpaceOnUse"
       xlink:href="#b"
       r="65"
       cy="473.45499"
       cx="147.694"
       id="d" />
    <clipPath
       clipPathUnits="userSpaceOnUse"
       id="clipPath2066">
      <path
         style="display:inline;fill:none;fill-opacity:1;stroke:#00ff00;stroke-width:0.03949217;stroke-linecap:butt;stroke-linejoin:miter;stroke-miterlimit:4;stroke-dasharray:none;stroke-opacity:1"
         d="M 1.3232424,11.614979 C 1.6880898,10.466859 2.6531888,9.6817939 3.2335558,8.5938052 3.6147056,7.839689 4.0622723,7.1240305 4.4899966,6.3984946 4.9177209,5.6729589 5.3256027,4.9375457 5.6273826,4.1439203 5.9368849,3.5883387 6.2985079,3.0502581 6.6378699,2.5007855 6.9772319,1.9513129 7.1827255,1.3904484 7.5147902,0.78929884 8.3894881,-0.46632725 9.9978312,0.17371713 11.220103,0.24977752 c 1.15002,0.22909345 2.304475,0.21201711 3.471125,0.33388995 1.657259,0.13027501 3.321681,0.18791667 4.989876,0.29634744 1.069919,0.10217599 2.140454,0.22644819 3.20279,0.39698609 1.062337,0.1705378 2.082993,0.3873415 3.120121,0.6745805 0.523554,0.3939098 0.997944,0.8088442 1.409488,1.2482505 0.411545,0.4394064 0.793727,0.9032845 1.199833,1.3950818 0.971115,0.9193807 0.15324,2.1525796 -0.391968,2.9681827 -1.248807,2.5581135 -3.250334,4.6327815 -4.666813,7.0889505 -1.124277,1.711762 -2.889786,2.827697 -4.452784,4.096965 -1.268526,0.930052 -2.86102,0.39672 -4.294912,0.532281 -1.739913,0.04346 -3.469355,-0.104236 -5.1975724,-0.258948 -0.3430384,0.0083 -0.6979584,-0.06823 -1.0413274,-0.09167 C 8.2245903,18.907234 7.8927725,18.83645 7.5512958,18.78934 7.209819,18.742229 6.869844,18.685309 6.532482,18.622628 6.1951201,18.559947 5.9050139,18.558469 5.5293464,18.488315 4.8242662,18.458336 4.1695557,18.313854 3.5049077,18.271589 2.8402597,18.229325 2.1098705,18.133028 1.4878079,18.132458 1.2616015,18.169088 1.194976,18.103404 1.0186347,18.075294 0.84229339,18.047174 0.76828979,18.011965 0.63893428,17.930989 0.50957877,17.850009 0.34719275,17.756733 0.26194373,17.634786 0.17669473,17.512839 0.09045767,17.462667 0.04643582,17.311645 c -0.04402185,-0.151021 -0.10860034,-0.29953 -0.18543105,-0.492968 -0.0789199,-0.198699 -0.0486975,-0.44247 -0.0189028,-0.615962 0.0297946,-0.173492 0.0319608,-0.335495 0.09434459,-0.502384 0.0623838,-0.1669 0.039896,-0.360996 0.1319898,-0.509389 0.2789676,-0.578451 0.49894289,-1.135308 0.64325068,-1.805495 0.14844989,-0.689424 0.3388371,-1.23025 0.6115554,-1.770468 z"
         id="path2068"
         inkscape:connector-curvature="0"
         clip-path="none"
         sodipodi:nodetypes="ccscsccccscsccccccssscscssssssscsc" />
    </clipPath>
    <radialGradient
       fy="578.088"
       fx="158.429"
       gradientTransform="matrix(0,-1.98198,1.8439,0,-1031.402,454.004)"
       gradientUnits="userSpaceOnUse"
       xlink:href="#a"
       r="65"
       cy="578.088"
       cx="158.429"
       id="c-7" />
    <radialGradient
       fy="473.455"
       fx="147.694"
       gradientTransform="matrix(0.17394,0.86872,-3.5818,0.71718,1648.348,-458.493)"
       gradientUnits="userSpaceOnUse"
       xlink:href="#b"
       r="65"
       cy="473.455"
       cx="147.694"
       id="d-9" />
    <clipPath
       clipPathUnits="userSpaceOnUse"
       id="clipPath2249">
      <path
         style="display:inline;fill:none;fill-opacity:1;stroke:#00e600;stroke-width:0.0198999;stroke-linecap:butt;stroke-linejoin:miter;stroke-miterlimit:5.80000019;stroke-dasharray:none;stroke-opacity:1"
         d="M 1.2789965,11.6228 C 1.7357598,10.497246 2.7962506,9.749573 3.2003731,8.5833093 3.967087,7.0603067 5.0010074,5.6926411 5.6080621,4.0898461 5.7637095,3.8093349 5.9289546,3.5332417 6.0961998,3.2579197 6.2634449,2.9825977 6.4326902,2.7080467 6.5963379,2.4306199 6.7599857,2.1531931 6.9180359,1.8728904 7.062891,1.5860648 7.1353185,1.442652 7.2289811,1.3061347 7.2693276,1.1504784 7.3105324,0.99151054 7.3987856,0.86202341 7.4936783,0.72210197 7.5765652,0.65401752 7.6325124,0.57630064 7.6980546,0.5140745 7.7635968,0.45184835 7.84268,0.41695068 7.9008126,0.36347831 8.0170778,0.25653366 8.0495407,0.28442316 8.1878869,0.198299 8.3203924,0.11581085 8.4785177,0.08306456 8.6488651,0.04929054 8.8192125,0.01551652 9.001782,-0.01928522 9.1673922,-0.01118248 9.4986125,0.005023 9.8447032,0.03957578 10.180877,0.09855296 c 0.336174,0.0589772 0.666378,0.11870333 0.973715,0.13790465 1.156681,0.23133699 2.340271,0.19155338 3.513678,0.31461973 1.666854,0.13155081 3.340919,0.313727 5.018771,0.28797958 2.152233,0.20635318 4.284488,0.55830668 6.393206,1.03698058 1.131749,0.6264844 1.953447,1.7210719 2.77036,2.7142987 0.976741,0.9283845 -0.11528,2.0722298 -0.573844,2.9521704 -1.256041,2.5831634 -3.269156,4.6781494 -4.693838,7.1583724 -1.13079,1.728526 -2.906522,2.85539 -4.478569,4.137089 -1.275871,0.939159 -2.877591,0.320913 -4.319785,0.4578 -1.749989,0.04387 -3.489445,-0.126993 -5.2276718,-0.283224 C 8.1767991,19.046164 6.8075491,18.655221 5.4533317,18.507098 4.0574559,18.378934 2.6734794,18.171578 1.2874452,18.057726 -0.53268596,18.353633 -0.6791913,16.477635 0.06182542,15.278863 0.62299158,14.110631 0.68549999,12.758898 1.2789965,11.6228 Z"
         id="path2251"
         inkscape:connector-curvature="0"
         clip-path="none"
         sodipodi:nodetypes="cccsssscsssssscccccccccccccc" />
    </clipPath>
    <clipPath
       clipPathUnits="userSpaceOnUse"
       id="clipPath2253">
      <path
         style="display:inline;fill:none;fill-opacity:1;stroke:#00e600;stroke-width:0.0198999;stroke-linecap:butt;stroke-linejoin:miter;stroke-miterlimit:5.80000019;stroke-dasharray:none;stroke-opacity:1"
         d="M 1.2789965,11.6228 C 1.7357598,10.497246 2.7962506,9.749573 3.2003731,8.5833093 3.967087,7.0603067 5.0010074,5.6926411 5.6080621,4.0898461 5.7637095,3.8093349 5.9289546,3.5332417 6.0961998,3.2579197 6.2634449,2.9825977 6.4326902,2.7080467 6.5963379,2.4306199 6.7599857,2.1531931 6.9180359,1.8728904 7.062891,1.5860648 7.1353185,1.442652 7.2289811,1.3061347 7.2693276,1.1504784 7.3105324,0.99151054 7.3987856,0.86202341 7.4936783,0.72210197 7.5765652,0.65401752 7.6325124,0.57630064 7.6980546,0.5140745 7.7635968,0.45184835 7.84268,0.41695068 7.9008126,0.36347831 8.0170778,0.25653366 8.0495407,0.28442316 8.1878869,0.198299 8.3203924,0.11581085 8.4785177,0.08306456 8.6488651,0.04929054 8.8192125,0.01551652 9.001782,-0.01928522 9.1673922,-0.01118248 9.4986125,0.005023 9.8447032,0.03957578 10.180877,0.09855296 c 0.336174,0.0589772 0.666378,0.11870333 0.973715,0.13790465 1.156681,0.23133699 2.340271,0.19155338 3.513678,0.31461973 1.666854,0.13155081 3.340919,0.313727 5.018771,0.28797958 2.152233,0.20635318 4.284488,0.55830668 6.393206,1.03698058 1.131749,0.6264844 1.953447,1.7210719 2.77036,2.7142987 0.976741,0.9283845 -0.11528,2.0722298 -0.573844,2.9521704 -1.256041,2.5831634 -3.269156,4.6781494 -4.693838,7.1583724 -1.13079,1.728526 -2.906522,2.85539 -4.478569,4.137089 -1.275871,0.939159 -2.877591,0.320913 -4.319785,0.4578 -1.749989,0.04387 -3.489445,-0.126993 -5.2276718,-0.283224 C 8.1767991,19.046164 6.8075491,18.655221 5.4533317,18.507098 4.0574559,18.378934 2.6734794,18.171578 1.2874452,18.057726 -0.53268596,18.353633 -0.6791913,16.477635 0.06182542,15.278863 0.62299158,14.110631 0.68549999,12.758898 1.2789965,11.6228 Z"
         id="path2255"
         inkscape:connector-curvature="0"
         clip-path="none"
         sodipodi:nodetypes="cccsssscsssssscccccccccccccc" />
    </clipPath>
    <clipPath
       clipPathUnits="userSpaceOnUse"
       id="clipPath2257">
      <path
         style="display:inline;fill:none;fill-opacity:1;stroke:#00e600;stroke-width:0.0198999;stroke-linecap:butt;stroke-linejoin:miter;stroke-miterlimit:5.80000019;stroke-dasharray:none;stroke-opacity:1"
         d="M 1.2789965,11.6228 C 1.7357598,10.497246 2.7962506,9.749573 3.2003731,8.5833093 3.967087,7.0603067 5.0010074,5.6926411 5.6080621,4.0898461 5.7637095,3.8093349 5.9289546,3.5332417 6.0961998,3.2579197 6.2634449,2.9825977 6.4326902,2.7080467 6.5963379,2.4306199 6.7599857,2.1531931 6.9180359,1.8728904 7.062891,1.5860648 7.1353185,1.442652 7.2289811,1.3061347 7.2693276,1.1504784 7.3105324,0.99151054 7.3987856,0.86202341 7.4936783,0.72210197 7.5765652,0.65401752 7.6325124,0.57630064 7.6980546,0.5140745 7.7635968,0.45184835 7.84268,0.41695068 7.9008126,0.36347831 8.0170778,0.25653366 8.0495407,0.28442316 8.1878869,0.198299 8.3203924,0.11581085 8.4785177,0.08306456 8.6488651,0.04929054 8.8192125,0.01551652 9.001782,-0.01928522 9.1673922,-0.01118248 9.4986125,0.005023 9.8447032,0.03957578 10.180877,0.09855296 c 0.336174,0.0589772 0.666378,0.11870333 0.973715,0.13790465 1.156681,0.23133699 2.340271,0.19155338 3.513678,0.31461973 1.666854,0.13155081 3.340919,0.313727 5.018771,0.28797958 2.152233,0.20635318 4.284488,0.55830668 6.393206,1.03698058 1.131749,0.6264844 1.953447,1.7210719 2.77036,2.7142987 0.976741,0.9283845 -0.11528,2.0722298 -0.573844,2.9521704 -1.256041,2.5831634 -3.269156,4.6781494 -4.693838,7.1583724 -1.13079,1.728526 -2.906522,2.85539 -4.478569,4.137089 -1.275871,0.939159 -2.877591,0.320913 -4.319785,0.4578 -1.749989,0.04387 -3.489445,-0.126993 -5.2276718,-0.283224 C 8.1767991,19.046164 6.8075491,18.655221 5.4533317,18.507098 4.0574559,18.378934 2.6734794,18.171578 1.2874452,18.057726 -0.53268596,18.353633 -0.6791913,16.477635 0.06182542,15.278863 0.62299158,14.110631 0.68549999,12.758898 1.2789965,11.6228 Z"
         id="path2259"
         inkscape:connector-curvature="0"
         clip-path="none"
         sodipodi:nodetypes="cccsssscsssssscccccccccccccc" />
    </clipPath>
    <clipPath
       clipPathUnits="userSpaceOnUse"
       id="clipPath2261">
      <path
         style="display:inline;fill:none;fill-opacity:1;stroke:#00e600;stroke-width:0.0198999;stroke-linecap:butt;stroke-linejoin:miter;stroke-miterlimit:5.80000019;stroke-dasharray:none;stroke-opacity:1"
         d="M 1.2789965,11.6228 C 1.7357598,10.497246 2.7962506,9.749573 3.2003731,8.5833093 3.967087,7.0603067 5.0010074,5.6926411 5.6080621,4.0898461 5.7637095,3.8093349 5.9289546,3.5332417 6.0961998,3.2579197 6.2634449,2.9825977 6.4326902,2.7080467 6.5963379,2.4306199 6.7599857,2.1531931 6.9180359,1.8728904 7.062891,1.5860648 7.1353185,1.442652 7.2289811,1.3061347 7.2693276,1.1504784 7.3105324,0.99151054 7.3987856,0.86202341 7.4936783,0.72210197 7.5765652,0.65401752 7.6325124,0.57630064 7.6980546,0.5140745 7.7635968,0.45184835 7.84268,0.41695068 7.9008126,0.36347831 8.0170778,0.25653366 8.0495407,0.28442316 8.1878869,0.198299 8.3203924,0.11581085 8.4785177,0.08306456 8.6488651,0.04929054 8.8192125,0.01551652 9.001782,-0.01928522 9.1673922,-0.01118248 9.4986125,0.005023 9.8447032,0.03957578 10.180877,0.09855296 c 0.336174,0.0589772 0.666378,0.11870333 0.973715,0.13790465 1.156681,0.23133699 2.340271,0.19155338 3.513678,0.31461973 1.666854,0.13155081 3.340919,0.313727 5.018771,0.28797958 2.152233,0.20635318 4.284488,0.55830668 6.393206,1.03698058 1.131749,0.6264844 1.953447,1.7210719 2.77036,2.7142987 0.976741,0.9283845 -0.11528,2.0722298 -0.573844,2.9521704 -1.256041,2.5831634 -3.269156,4.6781494 -4.693838,7.1583724 -1.13079,1.728526 -2.906522,2.85539 -4.478569,4.137089 -1.275871,0.939159 -2.877591,0.320913 -4.319785,0.4578 -1.749989,0.04387 -3.489445,-0.126993 -5.2276718,-0.283224 C 8.1767991,19.046164 6.8075491,18.655221 5.4533317,18.507098 4.0574559,18.378934 2.6734794,18.171578 1.2874452,18.057726 -0.53268596,18.353633 -0.6791913,16.477635 0.06182542,15.278863 0.62299158,14.110631 0.68549999,12.758898 1.2789965,11.6228 Z"
         id="path2263"
         inkscape:connector-curvature="0"
         clip-path="none"
         sodipodi:nodetypes="cccsssscsssssscccccccccccccc" />
    </clipPath>
    <clipPath
       clipPathUnits="userSpaceOnUse"
       id="clipPath2265">
      <path
         style="display:inline;fill:none;fill-opacity:1;stroke:#00e600;stroke-width:0.0198999;stroke-linecap:butt;stroke-linejoin:miter;stroke-miterlimit:5.80000019;stroke-dasharray:none;stroke-opacity:1"
         d="M 1.2789965,11.6228 C 1.7357598,10.497246 2.7962506,9.749573 3.2003731,8.5833093 3.967087,7.0603067 5.0010074,5.6926411 5.6080621,4.0898461 5.7637095,3.8093349 5.9289546,3.5332417 6.0961998,3.2579197 6.2634449,2.9825977 6.4326902,2.7080467 6.5963379,2.4306199 6.7599857,2.1531931 6.9180359,1.8728904 7.062891,1.5860648 7.1353185,1.442652 7.2289811,1.3061347 7.2693276,1.1504784 7.3105324,0.99151054 7.3987856,0.86202341 7.4936783,0.72210197 7.5765652,0.65401752 7.6325124,0.57630064 7.6980546,0.5140745 7.7635968,0.45184835 7.84268,0.41695068 7.9008126,0.36347831 8.0170778,0.25653366 8.0495407,0.28442316 8.1878869,0.198299 8.3203924,0.11581085 8.4785177,0.08306456 8.6488651,0.04929054 8.8192125,0.01551652 9.001782,-0.01928522 9.1673922,-0.01118248 9.4986125,0.005023 9.8447032,0.03957578 10.180877,0.09855296 c 0.336174,0.0589772 0.666378,0.11870333 0.973715,0.13790465 1.156681,0.23133699 2.340271,0.19155338 3.513678,0.31461973 1.666854,0.13155081 3.340919,0.313727 5.018771,0.28797958 2.152233,0.20635318 4.284488,0.55830668 6.393206,1.03698058 1.131749,0.6264844 1.953447,1.7210719 2.77036,2.7142987 0.976741,0.9283845 -0.11528,2.0722298 -0.573844,2.9521704 -1.256041,2.5831634 -3.269156,4.6781494 -4.693838,7.1583724 -1.13079,1.728526 -2.906522,2.85539 -4.478569,4.137089 -1.275871,0.939159 -2.877591,0.320913 -4.319785,0.4578 -1.749989,0.04387 -3.489445,-0.126993 -5.2276718,-0.283224 C 8.1767991,19.046164 6.8075491,18.655221 5.4533317,18.507098 4.0574559,18.378934 2.6734794,18.171578 1.2874452,18.057726 -0.53268596,18.353633 -0.6791913,16.477635 0.06182542,15.278863 0.62299158,14.110631 0.68549999,12.758898 1.2789965,11.6228 Z"
         id="path2267"
         inkscape:connector-curvature="0"
         clip-path="none"
         sodipodi:nodetypes="cccsssscsssssscccccccccccccc" />
    </clipPath>
  </defs>
  <sodipodi:namedview
     id="base"
     pagecolor="#ffffff"
     bordercolor="#666666"
     borderopacity="1.0"
     inkscape:pageopacity="0.0"
     inkscape:pageshadow="2"
     inkscape:zoom="15.839192"
     inkscape:cx="11.796376"
     inkscape:cy="7.7425567"
     inkscape:document-units="mm"
     inkscape:current-layer="layer6"
     showgrid="false"
     inkscape:window-width="1144"
     inkscape:window-height="700"
     inkscape:window-x="26"
     inkscape:window-y="45"
     inkscape:window-maximized="0"
     fit-margin-top="0"
     fit-margin-left="0"
     fit-margin-right="0"
     fit-margin-bottom="0"
     inkscape:snap-global="false" />
  <metadata
     id="metadata6627">
    <rdf:RDF>
      <cc:Work
         rdf:about="">
        <dc:format>image/svg+xml</dc:format>
        <dc:type
           rdf:resource="http://purl.org/dc/dcmitype/StillImage" />
        <dc:title></dc:title>
      </cc:Work>
    </rdf:RDF>
  </metadata>
  <g
     inkscape:groupmode="layer"
     id="layer5"
     inkscape:label="Layer 5"
     style="display:inline" />
  <g
     inkscape:groupmode="layer"
     id="layer1"
     inkscape:label="Layer 3"
     transform="translate(0.17065492,0.00312935)"
     style="display:inline" />
  <g
     inkscape:groupmode="layer"
     id="layer2"
     inkscape:label="Layer 4"
     transform="translate(0.17065492,0.00312935)"
     style="display:inline">
    <path
       style="display:inline;fill:url(#c);stroke-width:0.17767248"
       inkscape:connector-curvature="0"
       d="M 17.750483,0.84164984 C 12.767631,-0.3768403 11.308906,-0.72873741 11.019096,-0.77759706 9.9728741,-0.95382338 9.2917629,-0.96957929 8.5024953,-0.83931672 7.8944368,-0.73954047 7.3875317,-0.57547981 6.8517494,-0.30275781 5.8756886,0.19485274 5.1475763,0.92263926 4.6614963,1.8805306 4.4254005,2.3455269 4.3702248,2.4386439 3.5721003,4.9135248 3.3058141,5.7384252 2.9596135,6.8250953 2.492789,8.2820537 1.1071832,12.606528 0.70753386,13.872368 0.6527187,14.123768 c -0.19430375,0.884459 -0.21247943,1.466367 -0.0725991,2.141949 0.26673638,1.292955 1.1990357,2.442593 2.5177969,3.10898 0.4567533,0.230339 0.9807488,0.423816 1.6691736,0.623112 0.2919948,0.08344 3.3020628,0.82811 6.3165209,1.565256 3.014459,0.737145 6.029939,1.471102 6.322254,1.528828 0.818348,0.164522 1.304931,0.22453 1.860854,0.23495 1.532818,0.02921 2.986703,-0.523163 4.000988,-1.520057 0.510001,-0.501187 0.855173,-1.025485 1.191983,-1.826434 0.07338,-0.174641 0.992514,-3.020404 1.903632,-5.864 0.911271,-2.844075 1.814585,-5.6880323 1.855652,-5.8705747 0.191429,-0.8507717 0.206453,-1.4506451 0.06151,-2.1240259 C 28.161192,5.5703651 27.972318,5.134194 27.64836,4.6562209 27.068648,3.8080861 26.230722,3.1733055 25.126201,2.7477661 24.591084,2.541424 24.486657,2.4935342 21.635133,1.7915891 Z"
       id="path1893"
       clip-path="url(#clipPath2265)" />
    <path
       style="display:inline;fill:url(#d);fill-opacity:1;stroke-width:0.17767248"
       inkscape:connector-curvature="0"
       d="M 17.750483,0.84164984 C 12.767631,-0.3768403 11.308906,-0.72873741 11.019096,-0.77759706 9.9728741,-0.95382338 9.2917629,-0.96957929 8.5024953,-0.83931672 7.8944368,-0.73954047 7.3875317,-0.57547981 6.8517494,-0.30275781 5.8756886,0.19485274 5.1475763,0.92263926 4.6614963,1.8805306 4.4254005,2.3455269 4.3702248,2.4386439 3.5721003,4.9135248 3.3058141,5.7384252 2.9596135,6.8250953 2.492789,8.2820537 1.1071832,12.606528 0.70753386,13.872368 0.6527187,14.123768 c -0.19430375,0.884459 -0.21247943,1.466367 -0.0725991,2.141949 0.26673638,1.292955 1.1990357,2.442593 2.5177969,3.10898 0.4567533,0.230339 0.9807488,0.423816 1.6691736,0.623112 0.2919948,0.08344 3.3020628,0.82811 6.3165209,1.565256 3.014459,0.737145 6.029939,1.471102 6.322254,1.528828 0.818348,0.164522 1.304931,0.22453 1.860854,0.23495 1.532818,0.02921 2.986703,-0.523163 4.000988,-1.520057 0.510001,-0.501187 0.855173,-1.025485 1.191983,-1.826434 0.07338,-0.174641 0.992514,-3.020404 1.903632,-5.864 0.911271,-2.844075 1.814585,-5.6880323 1.855652,-5.8705747 0.191429,-0.8507717 0.206453,-1.4506451 0.06151,-2.1240259 C 28.161192,5.5703651 27.972318,5.134194 27.64836,4.6562209 27.068648,3.8080861 26.230722,3.1733055 25.126201,2.7477661 24.591084,2.541424 24.486657,2.4935342 21.635133,1.7915891 Z"
       id="path1895"
       clip-path="url(#clipPath2261)" />
    <path
       style="display:inline;fill:none;fill-opacity:1;stroke:#000000;stroke-width:1px;stroke-linecap:butt;stroke-linejoin:miter;stroke-opacity:1"
       d="M 1.894036,11.528274 C 2.3294598,10.463498 3.3404059,9.7561999 3.7256483,8.6529132 4.4565424,7.212151 5.4421595,5.9183379 6.0208536,4.402092 6.6143565,3.3406364 7.3542489,2.3460528 7.7769992,1.1975382 8.6156611,-0.00191795 10.136342,0.68412441 11.308258,0.75678227 12.4109,0.97562732 13.539195,0.93799198 14.65778,1.0544129 c 1.588984,0.1244472 3.184836,0.2967861 4.784302,0.272429 2.051683,0.1952104 4.084321,0.5281587 6.094524,0.9809846 1.078875,0.5926551 1.862184,1.628136 2.640934,2.5677298 0.931106,0.8782525 -0.109896,1.9603317 -0.547036,2.7927564 -1.197359,2.4436763 -3.116426,4.4255353 -4.474548,6.7718293 -1.07796,1.635187 -2.770733,2.701201 -4.269338,3.913688 -1.216264,0.888447 -2.743152,0.303585 -4.11797,0.433082 -1.668232,0.04151 -3.326423,-0.120137 -4.9834419,-0.26793 C 8.4695826,18.550787 7.1643022,18.180953 5.8733518,18.040828 4.5426893,17.919583 3.2233704,17.723425 1.9020899,17.615721 0.16699275,17.89565 0.02733194,16.120953 0.73372939,14.986914 1.2686786,13.881766 1.3282667,12.603024 1.894036,11.528274 Z"
       id="path116"
       inkscape:connector-curvature="0"
       clip-path="url(#clipPath2257)" />
    <path
       clip-path="url(#clipPath2253)"
       inkscape:connector-curvature="0"
       id="path1965"
       d="M 1.894036,11.528274 C 2.3294598,10.463498 3.3404059,9.7561999 3.7256483,8.6529132 4.4565424,7.212151 5.4421595,5.9183379 6.0208536,4.402092 6.6143565,3.3406364 7.3542489,2.3460528 7.7769992,1.1975382 8.6156611,-0.00191795 10.136342,0.68412441 11.308258,0.75678227 12.4109,0.97562732 13.539195,0.93799198 14.65778,1.0544129 c 1.588984,0.1244472 3.184836,0.2967861 4.784302,0.272429 2.051683,0.1952104 4.084321,0.5281587 6.094524,0.9809846 1.078875,0.5926551 1.862184,1.628136 2.640934,2.5677298 0.931106,0.8782525 -0.109896,1.9603317 -0.547036,2.7927564 -1.197359,2.4436763 -3.116426,4.4255353 -4.474548,6.7718293 -1.07796,1.635187 -2.770733,2.701201 -4.269338,3.913688 -1.216264,0.888447 -2.743152,0.303585 -4.11797,0.433082 -1.668232,0.04151 -3.326423,-0.120137 -4.9834419,-0.26793 C 8.4695826,18.550787 7.1643022,18.180953 5.8733518,18.040828 4.5426893,17.919583 3.2233704,17.723425 1.9020899,17.615721 0.16699275,17.89565 0.02733194,16.120953 0.73372939,14.986914 1.2686786,13.881766 1.3282667,12.603024 1.894036,11.528274 Z"
       style="display:inline;fill:none;fill-opacity:1;stroke:#000000;stroke-width:1px;stroke-linecap:butt;stroke-linejoin:miter;stroke-opacity:1" />
    <path
       style="fill:#ffffff;stroke-width:0.14269312"
       inkscape:connector-curvature="0"
       d="M 15.310619,2.927058 C 13.492927,2.5319017 13.263082,2.4902581 12.542106,2.3675449 11.822493,2.2452747 11.311617,2.2523494 10.850076,2.325346 10.372712,2.4005978 9.9495889,2.5480945 9.4966685,2.8393757 9.0434995,3.1304561 8.7336462,3.454155 8.4664729,3.8569314 8.2079995,4.2465583 7.9892949,4.7084976 7.8023872,5.4137669 7.6152554,6.1207382 7.5572677,6.3471758 7.1621114,8.1648673 6.7669551,9.9825587 6.7256032,10.211737 6.6027507,10.932684 c -0.1221308,0.719643 -0.1150566,1.23052 -0.042201,1.69203 0.075391,0.477393 0.222889,0.900516 0.5141704,1.353437 0.2909414,0.453139 0.6145181,0.763549 1.0172763,1.030134 0.3898576,0.258085 0.8518279,0.47665 1.5571138,0.664148 0.7068518,0.187687 0.9331018,0.245198 2.7506538,0.640322 1.817831,0.395187 2.046979,0.436679 2.767956,0.559392 0.719611,0.122268 1.231048,0.115318 1.692864,0.04239 0.477226,-0.07528 0.899911,-0.223458 1.352724,-0.51491 0.453169,-0.29108 0.763022,-0.614778 1.030195,-1.017555 0.257079,-0.389928 0.475783,-0.851871 0.664087,-1.556835 0.187269,-0.70694 0.245107,-0.932683 0.640263,-2.750374 0.395156,-1.8176911 0.436388,-2.0476245 0.559512,-2.7685131 0.121434,-0.7197944 0.114217,-1.2307001 0.0422,-1.6920303 C 21.073754,6.1368277 20.926258,5.7137036 20.634837,5.2607531 20.343476,4.8075227 20.020896,4.4979139 19.617409,4.231317 19.226716,3.9730493 18.764606,3.7544524 18.059181,3.566927 17.352329,3.3792384 17.126776,3.3218808 15.308526,2.9266032 Z m -0.862617,1.0755973 c 0.178251,0.038497 0.377035,0.081964 0.600412,0.1305265 1.787015,0.3884874 1.997427,0.4409343 2.69614,0.6264287 0.646074,0.1717032 0.976537,0.3577366 1.192549,0.500635 0.285963,0.1892091 0.477119,0.3826315 0.660308,0.6677816 0.183328,0.2851773 0.279839,0.539801 0.333528,0.8785692 0.04038,0.255564 0.07257,0.6334666 -0.0396,1.2924845 -0.121314,0.7125187 -0.160414,0.9259793 -0.54872,2.7121572 -0.388307,1.78618 -0.441364,1.996604 -0.626805,2.695182 -0.171703,0.646074 -0.357736,0.976538 -0.500575,1.192271 -0.189209,0.285964 -0.38285,0.476778 -0.667998,0.659967 -0.28518,0.183327 -0.539106,0.279991 -0.877954,0.333372 -0.255654,0.0408 -0.633743,0.07249 -1.292793,-0.03951 C 14.663979,15.531205 14.45052,15.492104 12.663506,15.103616 10.87635,14.715097 10.666065,14.662072 9.9674867,14.476629 9.3214649,14.304644 8.9910015,14.11861 8.7748505,13.975681 8.4888856,13.786472 8.2973128,13.592956 8.113986,13.307779 7.9306581,13.022602 7.8340234,12.768536 7.7803649,12.429628 7.7399867,12.174063 7.7077962,11.796161 7.8199603,11.137142 7.9412716,10.424623 7.9809326,10.211286 8.3694806,8.4239927 8.7580286,6.6366967 8.8102759,6.4272648 8.9957279,5.7286897 9.1674311,5.0826151 9.3534639,4.7521498 9.4963638,4.5361389 9.6855744,4.2501753 9.8793655,4.0586626 10.164544,3.8753358 c 0.285179,-0.1833294 0.539803,-0.279842 0.878572,-0.333531 0.255932,-0.040738 0.633884,-0.072472 1.292963,0.039411 0.623487,0.1063365 0.864577,0.1499872 2.112279,0.4197707 z m 3.931456,2.0185043 c -0.443407,-0.096395 -0.881268,0.1847266 -0.977692,0.6282737 -0.0964,0.4434068 0.185144,0.881359 0.628551,0.9777532 0.443407,0.096395 0.881359,-0.1851445 0.977754,-0.6285513 0.0964,-0.4434069 -0.185146,-0.881359 -0.628552,-0.9777534 z m -3.77664,0.1617336 c -1.898146,-0.4126466 -3.771667,0.7917518 -4.184313,2.6898965 -0.412647,1.8981473 0.791902,3.7709683 2.690048,4.1836153 1.898146,0.412646 3.770954,-0.791174 4.183602,-2.689321 0.412646,-1.8981448 -0.79133,-3.7715745 -2.689478,-4.1842212 z m -0.262205,1.2061237 c 1.232059,0.2678428 2.01385,1.4837863 1.745976,2.7159831 -0.267843,1.23206 -1.483923,2.013821 -2.715982,1.745979 -1.232199,-0.267874 -2.013821,-1.483925 -1.745978,-2.7159846 0.267873,-1.2321972 1.483786,-2.0138509 2.715984,-1.7459775 z"
       id="path2184"
       clip-path="url(#clipPath2249)" />
  </g>
  <g
     inkscape:groupmode="layer"
     id="layer6"
     inkscape:label="Layer 6"
     style="display:inline" />
</svg>
