<?xml version="1.0" encoding="UTF-8" standalone="no"?>
<!-- Created with Inkscape (http://www.inkscape.org/) -->

<svg
   xmlns:dc="http://purl.org/dc/elements/1.1/"
   xmlns:cc="http://creativecommons.org/ns#"
   xmlns:rdf="http://www.w3.org/1999/02/22-rdf-syntax-ns#"
   xmlns:svg="http://www.w3.org/2000/svg"
   xmlns="http://www.w3.org/2000/svg"
   xmlns:sodipodi="http://sodipodi.sourceforge.net/DTD/sodipodi-0.dtd"
   xmlns:inkscape="http://www.inkscape.org/namespaces/inkscape"
   viewBox="0 0 29.223714 19.360608"
   version="1.1"
   id="svg6630"
   sodipodi:docname="key_github_raised.svg"
   inkscape:version="0.92.2 5c3e80d, 2017-08-06"
   preserveAspectRatio="none"
   height="100%"
   width="100%">
  <defs
     id="defs6624" />
  <sodipodi:namedview
     id="base"
     pagecolor="#ffffff"
     bordercolor="#666666"
     borderopacity="1.0"
     inkscape:pageopacity="0.0"
     inkscape:pageshadow="2"
     inkscape:zoom="15.839192"
     inkscape:cx="5.7083587"
     inkscape:cy="13.519743"
     inkscape:document-units="mm"
     inkscape:current-layer="layer1"
     showgrid="false"
     inkscape:window-width="1144"
     inkscape:window-height="700"
     inkscape:window-x="26"
     inkscape:window-y="45"
     inkscape:window-maximized="0"
     fit-margin-top="0"
     fit-margin-left="0"
     fit-margin-right="0"
     fit-margin-bottom="0"
     inkscape:snap-global="false" />
  <metadata
     id="metadata6627">
    <rdf:RDF>
      <cc:Work
         rdf:about="">
        <dc:format>image/svg+xml</dc:format>
        <dc:type
           rdf:resource="http://purl.org/dc/dcmitype/StillImage" />
        <dc:title></dc:title>
      </cc:Work>
    </rdf:RDF>
  </metadata>
  <g
     inkscape:groupmode="layer"
     id="layer1"
     inkscape:label="Layer 3"
     transform="translate(0.17065492,0.00312935)"
     style="display:inline">
    <path
       style="fill:#ffffff;fill-opacity:1;stroke:#000000;stroke-width:1px;stroke-linecap:butt;stroke-linejoin:miter;stroke-opacity:1"
       d="M 1.894036,11.528274 C 2.3294598,10.463498 3.3404059,9.7561999 3.7256483,8.6529132 4.4565424,7.212151 5.4421595,5.9183379 6.0208536,4.402092 6.6143565,3.3406364 7.3542489,2.3460528 7.7769992,1.1975382 8.6156611,-0.00191795 10.136342,0.68412441 11.308258,0.75678227 12.4109,0.97562732 13.539195,0.93799198 14.65778,1.0544129 c 1.588984,0.1244472 3.184836,0.2967861 4.784302,0.272429 2.051683,0.1952104 4.084321,0.5281587 6.094524,0.9809846 1.078875,0.5926551 1.862184,1.628136 2.640934,2.5677298 0.931106,0.8782525 -0.109896,1.9603317 -0.547036,2.7927564 -1.197359,2.4436763 -3.116426,4.4255353 -4.474548,6.7718293 -1.07796,1.635187 -2.770733,2.701201 -4.269338,3.913688 -1.216264,0.888447 -2.743152,0.303585 -4.11797,0.433082 -1.668232,0.04151 -3.326423,-0.120137 -4.9834419,-0.26793 C 8.4695826,18.550787 7.1643022,18.180953 5.8733518,18.040828 4.5426893,17.919583 3.2233704,17.723425 1.9020899,17.615721 0.16699275,17.89565 0.02733194,16.120953 0.73372939,14.986914 1.2686786,13.881766 1.3282667,12.603024 1.894036,11.528274 Z"
       id="path116"
       inkscape:connector-curvature="0" />
    <path
       id="path988"
       d="M 12.695832,12.069541 A 0.92220343,0.92220343 0 0 1 11.928963,11.017417 L 12.030217,10.36983 C 10.171606,10.469126 9.9797348,9.2557973 9.9797348,9.2557973 9.8070258,8.4625552 9.4161349,8.1957793 9.4161349,8.1957793 8.8956859,7.6999663 9.5241529,7.8102498 9.5241529,7.8102498 10.164262,7.9604987 10.404873,8.6356661 10.404873,8.6356661 10.820415,9.7153203 11.800928,9.5818068 12.195477,9.4767749 12.321024,9.0690145 12.534595,8.811582 12.74539,8.6799992 11.338472,8.2846615 9.9216638,7.4865294 10.322597,5.0143974 10.436845,4.309948 10.782187,3.7753139 11.26857,3.3903206 11.22803,3.2165821 11.113631,2.5247361 11.607934,1.6929382 c 0,0 0.570125,-0.08538 1.667645,0.9493257 a 6.2725417,6.2725417 0 0 1 1.650431,0.044785 c 0.547538,0.091145 1.088375,0.2522004 1.580895,0.4792739 1.367376,-0.6349459 1.880393,-0.3739016 1.880393,-0.3739016 0.206902,0.9459846 -0.120279,1.5662159 -0.213583,1.7177817 0.3403,0.5186015 0.49754,1.1352086 0.383291,1.8396581 -0.401959,2.478467 -2.000243,2.7792502 -3.462642,2.7059891 0.198686,0.2379252 0.341383,0.6636512 0.243718,1.2658499 -0.140077,0.863708 -0.200354,1.215653 -0.200354,1.215653 a 0.92266183,0.92266183 0 0 1 -1.059252,0.756426 z"
       inkscape:connector-curvature="0"
       style="stroke-width:0.010295" />
  </g>
  <g
     inkscape:groupmode="layer"
     id="layer2"
     inkscape:label="Layer 4"
     transform="translate(0.17065492,0.00312935)"
     style="display:inline">
    <path
       style="fill:none;stroke:#000000;stroke-width:1px;stroke-linecap:butt;stroke-linejoin:miter;stroke-opacity:1"
       d="m 1.9571705,11.528274 c 3.1549039,0.396925 6.2457354,1.271184 9.4357155,1.378234 2.34779,0.28202 4.668022,0.845879 7.035684,0.928601 1.208204,-0.442978 1.614849,-1.859818 2.363251,-2.800981 0.818802,-1.2826099 1.813769,-2.4581001 2.352751,-3.9007461 0.567745,-1.0558566 1.215198,-2.0714338 1.735704,-3.1551654 0.181027,-0.4591486 0.463823,-0.8808903 0.625936,-1.3519211"
       id="path119"
       inkscape:connector-curvature="0" />
    <path
       style="fill:none;stroke:#000000;stroke-width:1px;stroke-linecap:butt;stroke-linejoin:miter;stroke-opacity:1"
       d="m 18.498418,18.662477 c 0.110071,-1.176151 -0.173788,-2.315335 -0.311584,-3.467121 -0.04554,-0.44991 -0.115495,-0.900094 -0.256606,-1.331015"
       id="path121"
       inkscape:connector-curvature="0" />
  </g>
</svg>
