<?xml version="1.0" encoding="UTF-8" standalone="no"?>
<!-- Created with Inkscape (http://www.inkscape.org/) -->

<svg
   xmlns:dc="http://purl.org/dc/elements/1.1/"
   xmlns:cc="http://creativecommons.org/ns#"
   xmlns:rdf="http://www.w3.org/1999/02/22-rdf-syntax-ns#"
   xmlns:svg="http://www.w3.org/2000/svg"
   xmlns="http://www.w3.org/2000/svg"
   xmlns:xlink="http://www.w3.org/1999/xlink"
   xmlns:sodipodi="http://sodipodi.sourceforge.net/DTD/sodipodi-0.dtd"
   xmlns:inkscape="http://www.inkscape.org/namespaces/inkscape"
   viewBox="0 0 29.223714 19.360608"
   version="1.1"
   id="svg6630"
   sodipodi:docname="key_instagram_raised.svg"
   inkscape:version="0.92.2 5c3e80d, 2017-08-06"
   preserveAspectRatio="none"
   height="100%"
   width="100%">
  <defs
     id="defs6624">
    <linearGradient
       id="b">
      <stop
         id="stop1873"
         stop-color="#3771c8"
         offset="0" />
      <stop
         id="stop1875"
         offset=".128"
         stop-color="#3771c8" />
      <stop
         id="stop1877"
         stop-opacity="0"
         stop-color="#60f"
         offset="1" />
    </linearGradient>
    <linearGradient
       id="a">
      <stop
         id="stop1880"
         stop-color="#fd5"
         offset="0" />
      <stop
         id="stop1882"
         stop-color="#fd5"
         offset=".1" />
      <stop
         id="stop1884"
         stop-color="#ff543e"
         offset=".5" />
      <stop
         id="stop1886"
         stop-color="#c837ab"
         offset="1" />
    </linearGradient>
    <radialGradient
       fy="578.088"
       fx="158.429"
       gradientTransform="matrix(0.10126265,-0.31604057,0.33851157,0.0827785,-206.56267,24.016593)"
       gradientUnits="userSpaceOnUse"
       xlink:href="#a"
       r="65"
       cy="578.088"
       cx="158.429"
       id="c" />
    <radialGradient
       fy="473.45499"
       fx="147.694"
       gradientTransform="matrix(-0.01245165,0.14633219,-0.69420509,-0.04643896,332.01905,-1.1849862)"
       gradientUnits="userSpaceOnUse"
       xlink:href="#b"
       r="65"
       cy="473.45499"
       cx="147.694"
       id="d" />
    <clipPath
       clipPathUnits="userSpaceOnUse"
       id="clipPath2066">
      <path
         style="display:inline;fill:none;fill-opacity:1;stroke:#00ff00;stroke-width:0.03949217;stroke-linecap:butt;stroke-linejoin:miter;stroke-miterlimit:4;stroke-dasharray:none;stroke-opacity:1"
         d="M 1.3232424,11.614979 C 1.6880898,10.466859 2.6531888,9.6817939 3.2335558,8.5938052 3.6147056,7.839689 4.0622723,7.1240305 4.4899966,6.3984946 4.9177209,5.6729589 5.3256027,4.9375457 5.6273826,4.1439203 5.9368849,3.5883387 6.2985079,3.0502581 6.6378699,2.5007855 6.9772319,1.9513129 7.1827255,1.3904484 7.5147902,0.78929884 8.3894881,-0.46632725 9.9978312,0.17371713 11.220103,0.24977752 c 1.15002,0.22909345 2.304475,0.21201711 3.471125,0.33388995 1.657259,0.13027501 3.321681,0.18791667 4.989876,0.29634744 1.069919,0.10217599 2.140454,0.22644819 3.20279,0.39698609 1.062337,0.1705378 2.082993,0.3873415 3.120121,0.6745805 0.523554,0.3939098 0.997944,0.8088442 1.409488,1.2482505 0.411545,0.4394064 0.793727,0.9032845 1.199833,1.3950818 0.971115,0.9193807 0.15324,2.1525796 -0.391968,2.9681827 -1.248807,2.5581135 -3.250334,4.6327815 -4.666813,7.0889505 -1.124277,1.711762 -2.889786,2.827697 -4.452784,4.096965 -1.268526,0.930052 -2.86102,0.39672 -4.294912,0.532281 -1.739913,0.04346 -3.469355,-0.104236 -5.1975724,-0.258948 -0.3430384,0.0083 -0.6979584,-0.06823 -1.0413274,-0.09167 C 8.2245903,18.907234 7.8927725,18.83645 7.5512958,18.78934 7.209819,18.742229 6.869844,18.685309 6.532482,18.622628 6.1951201,18.559947 5.9050139,18.558469 5.5293464,18.488315 4.8242662,18.458336 4.1695557,18.313854 3.5049077,18.271589 2.8402597,18.229325 2.1098705,18.133028 1.4878079,18.132458 1.2616015,18.169088 1.194976,18.103404 1.0186347,18.075294 0.84229339,18.047174 0.76828979,18.011965 0.63893428,17.930989 0.50957877,17.850009 0.34719275,17.756733 0.26194373,17.634786 0.17669473,17.512839 0.09045767,17.462667 0.04643582,17.311645 c -0.04402185,-0.151021 -0.10860034,-0.29953 -0.18543105,-0.492968 -0.0789199,-0.198699 -0.0486975,-0.44247 -0.0189028,-0.615962 0.0297946,-0.173492 0.0319608,-0.335495 0.09434459,-0.502384 0.0623838,-0.1669 0.039896,-0.360996 0.1319898,-0.509389 0.2789676,-0.578451 0.49894289,-1.135308 0.64325068,-1.805495 0.14844989,-0.689424 0.3388371,-1.23025 0.6115554,-1.770468 z"
         id="path2068"
         inkscape:connector-curvature="0"
         clip-path="none"
         sodipodi:nodetypes="ccscsccccscsccccccssscscssssssscsc" />
    </clipPath>
    <radialGradient
       fy="578.088"
       fx="158.429"
       gradientTransform="matrix(0,-1.98198,1.8439,0,-1031.402,454.004)"
       gradientUnits="userSpaceOnUse"
       xlink:href="#a"
       r="65"
       cy="578.088"
       cx="158.429"
       id="c-7" />
    <radialGradient
       fy="473.455"
       fx="147.694"
       gradientTransform="matrix(0.17394,0.86872,-3.5818,0.71718,1648.348,-458.493)"
       gradientUnits="userSpaceOnUse"
       xlink:href="#b"
       r="65"
       cy="473.455"
       cx="147.694"
       id="d-9" />
  </defs>
  <sodipodi:namedview
     id="base"
     pagecolor="#ffffff"
     bordercolor="#666666"
     borderopacity="1.0"
     inkscape:pageopacity="0.0"
     inkscape:pageshadow="2"
     inkscape:zoom="15.839192"
     inkscape:cx="19.653413"
     inkscape:cy="4.4068796"
     inkscape:document-units="mm"
     inkscape:current-layer="layer2"
     showgrid="false"
     inkscape:window-width="1144"
     inkscape:window-height="700"
     inkscape:window-x="26"
     inkscape:window-y="45"
     inkscape:window-maximized="0"
     fit-margin-top="0"
     fit-margin-left="0"
     fit-margin-right="0"
     fit-margin-bottom="0"
     inkscape:snap-global="false" />
  <metadata
     id="metadata6627">
    <rdf:RDF>
      <cc:Work
         rdf:about="">
        <dc:format>image/svg+xml</dc:format>
        <dc:type
           rdf:resource="http://purl.org/dc/dcmitype/StillImage" />
        <dc:title></dc:title>
      </cc:Work>
    </rdf:RDF>
  </metadata>
  <g
     inkscape:groupmode="layer"
     id="layer5"
     inkscape:label="Layer 5"
     style="display:inline" />
  <g
     inkscape:groupmode="layer"
     id="layer1"
     inkscape:label="Layer 3"
     transform="translate(0.17065492,0.00312935)"
     style="display:inline" />
  <g
     inkscape:groupmode="layer"
     id="layer2"
     inkscape:label="Layer 4"
     transform="translate(0.17065492,0.00312935)"
     style="display:inline">
    <g
       id="g2056"
       clip-path="url(#clipPath2066)">
      <path
         transform="translate(-0.17065492,-0.00312935)"
         clip-path="none"
         id="path1893"
         d="M 17.921138,0.84477919 C 12.938286,-0.37371095 11.479561,-0.72560806 11.189751,-0.77446771 10.143529,-0.95069403 9.4624178,-0.96644994 8.6731502,-0.83618737 8.0650917,-0.73641112 7.5581866,-0.57235046 7.0224043,-0.29962846 6.0463435,0.19798209 5.3182312,0.92576861 4.8321512,1.88366 4.5960554,2.3486562 4.5408797,2.4417732 3.7427552,4.9166542 3.476469,5.7415546 3.1302684,6.8282246 2.6634439,8.2851831 1.2778381,12.609657 0.87818878,13.875497 0.82337362,14.126897 c -0.19430375,0.884459 -0.21247943,1.466367 -0.0725991,2.141949 0.26673638,1.292955 1.19903568,2.442593 2.51779688,3.10898 0.4567533,0.230339 0.9807488,0.423816 1.6691736,0.623112 0.2919948,0.08344 3.3020628,0.82811 6.316521,1.565256 3.014459,0.737145 6.029939,1.471102 6.322254,1.528828 0.818348,0.164522 1.304931,0.22453 1.860854,0.23495 1.532818,0.02921 2.986703,-0.523163 4.000988,-1.520057 0.510001,-0.501187 0.855173,-1.025485 1.191983,-1.826434 0.07338,-0.174641 0.992514,-3.020404 1.903632,-5.864 0.911271,-2.844075 1.814585,-5.688032 1.855652,-5.8705744 0.191429,-0.8507717 0.206453,-1.4506451 0.06151,-2.1240259 C 28.331847,5.5734945 28.142973,5.1373234 27.819015,4.6593502 27.239303,3.8112154 26.401377,3.1764349 25.296856,2.7508954 24.761739,2.5445533 24.657312,2.4966635 21.805788,1.7947185 Z"
         inkscape:connector-curvature="0"
         style="display:inline;fill:url(#c);stroke-width:0.17767248" />
      <path
         transform="translate(-0.17065492,-0.00312935)"
         clip-path="none"
         id="path1895"
         d="M 17.921138,0.84477919 C 12.938286,-0.37371095 11.479561,-0.72560806 11.189751,-0.77446771 10.143529,-0.95069403 9.4624178,-0.96644994 8.6731502,-0.83618737 8.0650917,-0.73641112 7.5581866,-0.57235046 7.0224043,-0.29962846 6.0463435,0.19798209 5.3182312,0.92576861 4.8321512,1.88366 4.5960554,2.3486562 4.5408797,2.4417732 3.7427552,4.9166542 3.476469,5.7415546 3.1302684,6.8282246 2.6634439,8.2851831 1.2778381,12.609657 0.87818878,13.875497 0.82337362,14.126897 c -0.19430375,0.884459 -0.21247943,1.466367 -0.0725991,2.141949 0.26673638,1.292955 1.19903568,2.442593 2.51779688,3.10898 0.4567533,0.230339 0.9807488,0.423816 1.6691736,0.623112 0.2919948,0.08344 3.3020628,0.82811 6.316521,1.565256 3.014459,0.737145 6.029939,1.471102 6.322254,1.528828 0.818348,0.164522 1.304931,0.22453 1.860854,0.23495 1.532818,0.02921 2.986703,-0.523163 4.000988,-1.520057 0.510001,-0.501187 0.855173,-1.025485 1.191983,-1.826434 0.07338,-0.174641 0.992514,-3.020404 1.903632,-5.864 0.911271,-2.844075 1.814585,-5.688032 1.855652,-5.8705744 0.191429,-0.8507717 0.206453,-1.4506451 0.06151,-2.1240259 C 28.331847,5.5734945 28.142973,5.1373234 27.819015,4.6593502 27.239303,3.8112154 26.401377,3.1764349 25.296856,2.7508954 24.761739,2.5445533 24.657312,2.4966635 21.805788,1.7947185 Z"
         inkscape:connector-curvature="0"
         style="display:inline;fill:url(#d);fill-opacity:1;stroke-width:0.17767248" />
      <path
         clip-path="none"
         inkscape:connector-curvature="0"
         id="path116"
         d="M 1.894036,11.528274 C 2.3294598,10.463498 3.3404059,9.7561999 3.7256483,8.6529132 4.4565424,7.212151 5.4421595,5.9183379 6.0208536,4.402092 6.6143565,3.3406364 7.3542489,2.3460528 7.7769992,1.1975382 8.6156611,-0.00191795 10.136342,0.68412441 11.308258,0.75678227 12.4109,0.97562732 13.539195,0.93799198 14.65778,1.0544129 c 1.588984,0.1244472 3.184836,0.2967861 4.784302,0.272429 2.051683,0.1952104 4.084321,0.5281587 6.094524,0.9809846 1.078875,0.5926551 1.862184,1.628136 2.640934,2.5677298 0.931106,0.8782525 -0.109896,1.9603317 -0.547036,2.7927564 -1.197359,2.4436763 -3.116426,4.4255353 -4.474548,6.7718293 -1.07796,1.635187 -2.770733,2.701201 -4.269338,3.913688 -1.216264,0.888447 -2.743152,0.303585 -4.11797,0.433082 -1.668232,0.04151 -3.326423,-0.120137 -4.9834419,-0.26793 C 8.4695826,18.550787 7.1643022,18.180953 5.8733518,18.040828 4.5426893,17.919583 3.2233704,17.723425 1.9020899,17.615721 0.16699275,17.89565 0.02733194,16.120953 0.73372939,14.986914 1.2686786,13.881766 1.3282667,12.603024 1.894036,11.528274 Z"
         style="display:inline;fill:none;fill-opacity:1;stroke:#000000;stroke-width:1px;stroke-linecap:butt;stroke-linejoin:miter;stroke-opacity:1" />
      <path
         style="display:inline;fill:none;fill-opacity:1;stroke:#000000;stroke-width:1px;stroke-linecap:butt;stroke-linejoin:miter;stroke-opacity:1"
         d="M 1.894036,11.528274 C 2.3294598,10.463498 3.3404059,9.7561999 3.7256483,8.6529132 4.4565424,7.212151 5.4421595,5.9183379 6.0208536,4.402092 6.6143565,3.3406364 7.3542489,2.3460528 7.7769992,1.1975382 8.6156611,-0.00191795 10.136342,0.68412441 11.308258,0.75678227 12.4109,0.97562732 13.539195,0.93799198 14.65778,1.0544129 c 1.588984,0.1244472 3.184836,0.2967861 4.784302,0.272429 2.051683,0.1952104 4.084321,0.5281587 6.094524,0.9809846 1.078875,0.5926551 1.862184,1.628136 2.640934,2.5677298 0.931106,0.8782525 -0.109896,1.9603317 -0.547036,2.7927564 -1.197359,2.4436763 -3.116426,4.4255353 -4.474548,6.7718293 -1.07796,1.635187 -2.770733,2.701201 -4.269338,3.913688 -1.216264,0.888447 -2.743152,0.303585 -4.11797,0.433082 -1.668232,0.04151 -3.326423,-0.120137 -4.9834419,-0.26793 C 8.4695826,18.550787 7.1643022,18.180953 5.8733518,18.040828 4.5426893,17.919583 3.2233704,17.723425 1.9020899,17.615721 0.16699275,17.89565 0.02733194,16.120953 0.73372939,14.986914 1.2686786,13.881766 1.3282667,12.603024 1.894036,11.528274 Z"
         id="path1965"
         inkscape:connector-curvature="0"
         clip-path="none" />
      <path
         inkscape:connector-curvature="0"
         id="path119"
         d="m 1.9571705,11.528274 c 3.1549039,0.396925 6.2457354,1.271184 9.4357155,1.378234 2.34779,0.28202 4.668022,0.845879 7.035684,0.928601 1.208204,-0.442978 1.614849,-1.859818 2.363251,-2.800981 0.818802,-1.2826099 1.813769,-2.4581001 2.352751,-3.9007461 0.567745,-1.0558566 1.215198,-2.0714338 1.735704,-3.1551654 0.181027,-0.4591486 0.463823,-0.8808903 0.625936,-1.3519211"
         style="fill:none;stroke:#000000;stroke-width:1px;stroke-linecap:butt;stroke-linejoin:miter;stroke-opacity:1" />
      <path
         inkscape:connector-curvature="0"
         id="path121"
         d="m 18.498418,18.662477 c 0.110071,-1.176151 -0.173788,-2.315335 -0.311584,-3.467121 -0.04554,-0.44991 -0.115495,-0.900094 -0.256606,-1.331015"
         style="fill:none;stroke:#000000;stroke-width:1px;stroke-linecap:butt;stroke-linejoin:miter;stroke-opacity:1" />
    </g>
    <g
       id="g2197"
       transform="matrix(0.16231388,0.03528616,-0.03528616,0.16231388,10.850982,25.355278)">
      <path
         id="path2184"
         d="m -5.5321742,-138.29834 c -7.5241978,0 -8.4684748,0.0329 -11.4236668,0.16738 -2.949422,0.13506 -4.962647,0.60201 -6.724219,1.28713 -1.822176,0.70763 -3.367881,1.65421 -4.907813,3.19472 -1.541087,1.53993 -2.487673,3.08564 -3.197612,4.90724 -0.686851,1.76215 -1.154372,3.77595 -1.287125,6.72422 -0.132175,2.95519 -0.166806,3.90004 -0.166806,11.42424 0,7.5242 0.03348,8.46559 0.167384,11.420783 0.135638,2.949421 0.602582,4.962651 1.287125,6.724221 0.708207,1.82217 1.654792,3.36788 3.195302,4.90781 1.539355,1.54109 3.08506,2.48998 4.906082,3.19761 1.762726,0.68512 3.776529,1.15206 6.725373,1.28713 2.955193,0.13448 3.898892,0.16738 11.4225128,0.16738 7.524776,0 8.466166,-0.0329 11.421359,-0.16738 2.94942,-0.13507 4.9649602,-0.60201 6.7276802,-1.28713 1.8216,-0.70763 3.36499,-1.65652 4.90435,-3.19761 1.54109,-1.53993 2.48767,-3.08564 3.19761,-4.90724 0.68108,-1.76214 1.1486,-3.77595 1.28713,-6.724214 0.13275,-2.95519 0.16738,-3.89716 0.16738,-11.42136 0,-7.5242 -0.0346,-8.46847 -0.16738,-11.42367 -0.13853,-2.94942 -0.60605,-4.96264 -1.28713,-6.72422 -0.70994,-1.82217 -1.65652,-3.36788 -3.19761,-4.90781 -1.54109,-1.54109 -3.08217,-2.48767 -4.90608,-3.19472 -1.76619,-0.68512 -3.7805702,-1.15207 -6.7299902,-1.28713 -2.955193,-0.13448 -3.896006,-0.16738 -11.422514,-0.16738 z m -2.485363,4.99266 c 0.737644,-0.001 1.560711,0 2.485363,0 7.397218,0 8.273963,0.0265 11.195106,0.1593 2.70123,0.12352 4.16728,0.57488 5.1438802,0.95409 1.29289,0.50215 2.21466,1.10242 3.18376,2.0721 0.96967,0.96967 1.56994,1.89317 2.07325,3.18606 0.37921,0.97545 0.83115,2.4415 0.95409,5.14273 0.13275,2.92056 0.16161,3.79789 0.16161,11.19164 0,7.39376 -0.0289,8.27108 -0.16161,11.191641 -0.12352,2.701233 -0.57488,4.167283 -0.95409,5.142733 -0.50215,1.29289 -1.10358,2.2135 -2.07325,3.1826 -0.96968,0.96967 -1.89029,1.56994 -3.18376,2.0721 -0.9754502,0.38094 -2.4426502,0.83114 -5.1438802,0.95466 -2.920565,0.13276 -3.797888,0.16161 -11.195106,0.16161 -7.3977938,0 -8.2745398,-0.0289 -11.1951018,-0.16161 -2.701231,-0.12467 -4.167284,-0.57603 -5.14446,-0.95524 -1.292897,-0.50215 -2.216394,-1.10243 -3.186067,-2.0721 -0.969673,-0.96967 -1.569946,-1.89086 -2.073253,-3.18433 -0.379211,-0.97545 -0.831148,-2.4415 -0.954088,-5.142732 -0.132753,-2.920562 -0.159304,-3.797882 -0.159304,-11.196252 0,-7.39838 0.02655,-8.27108 0.159304,-11.19164 0.123517,-2.70123 0.574877,-4.16729 0.954088,-5.14389 0.502152,-1.29289 1.10358,-2.21639 2.073253,-3.18606 0.969673,-0.96968 1.89317,-1.56995 3.186067,-2.07326 0.976599,-0.38094 2.443229,-0.83114 5.14446,-0.95524 2.55578,-0.11544 3.546232,-0.15007 8.7097388,-0.15584 z m 17.274029,4.60017 c -1.83545,0 -3.32459,1.48741 -3.32459,3.32344 0,1.83545 1.48914,3.32459 3.32459,3.32459 1.8354502,0 3.3245902,-1.48914 3.3245902,-3.32459 0,-1.83545 -1.48914,-3.32459 -3.3245902,-3.32459 z m -14.788666,3.88446 c -7.8572338,0 -14.2276378,6.37041 -14.2276378,14.22764 0,7.85724 6.370404,14.224754 14.2276378,14.224754 7.857235,0 14.225326,-6.367514 14.225326,-14.224754 0,-7.85723 -6.368668,-14.22764 -14.225903,-14.22764 z m 0,4.99266 c 5.10001704,0 9.234978,4.13439 9.234978,9.23498 0,5.10002 -4.13496096,9.23498 -9.234978,9.23498 -5.1005938,0 -9.2349778,-4.13496 -9.2349778,-9.23498 0,-5.10059 4.134384,-9.23498 9.2349778,-9.23498 z"
         inkscape:connector-curvature="0"
         style="fill:#ffffff;stroke-width:0.57718611" />
    </g>
  </g>
  <g
     inkscape:groupmode="layer"
     id="layer6"
     inkscape:label="Layer 6"
     style="display:inline" />
</svg>
