<?xml version="1.0" encoding="UTF-8" standalone="no"?>
<!-- Created with Inkscape (http://www.inkscape.org/) -->

<svg
   xmlns:dc="http://purl.org/dc/elements/1.1/"
   xmlns:cc="http://creativecommons.org/ns#"
   xmlns:rdf="http://www.w3.org/1999/02/22-rdf-syntax-ns#"
   xmlns:svg="http://www.w3.org/2000/svg"
   xmlns="http://www.w3.org/2000/svg"
   xmlns:sodipodi="http://sodipodi.sourceforge.net/DTD/sodipodi-0.dtd"
   xmlns:inkscape="http://www.inkscape.org/namespaces/inkscape"
   viewBox="0 0 29.223712 19.36061"
   version="1.1"
   id="svg6630"
   sodipodi:docname="key_github_pressed.svg"
   inkscape:version="0.92.2 5c3e80d, 2017-08-06"
   preserveAspectRatio="none"
   width="100%"
   height="100%">
  <defs
     id="defs6624" />
  <sodipodi:namedview
     id="base"
     pagecolor="#ffffff"
     bordercolor="#666666"
     borderopacity="1.0"
     inkscape:pageopacity="0.0"
     inkscape:pageshadow="2"
     inkscape:zoom="15.839192"
     inkscape:cx="15.74675"
     inkscape:cy="5.9435994"
     inkscape:document-units="mm"
     inkscape:current-layer="layer1"
     showgrid="false"
     inkscape:window-width="1144"
     inkscape:window-height="700"
     inkscape:window-x="22"
     inkscape:window-y="0"
     inkscape:window-maximized="0"
     fit-margin-top="0"
     fit-margin-left="0"
     fit-margin-right="0"
     fit-margin-bottom="0"
     inkscape:snap-global="false" />
  <metadata
     id="metadata6627">
    <rdf:RDF>
      <cc:Work
         rdf:about="">
        <dc:format>image/svg+xml</dc:format>
        <dc:type
           rdf:resource="http://purl.org/dc/dcmitype/StillImage" />
        <dc:title></dc:title>
      </cc:Work>
    </rdf:RDF>
  </metadata>
  <g
     inkscape:groupmode="layer"
     id="layer1"
     inkscape:label="Layer 3"
     transform="translate(0.17065492,0.00312935)"
     style="display:inline">
    <path
       style="fill:#ffffff;fill-opacity:1;stroke:#000000;stroke-width:1px;stroke-linecap:butt;stroke-linejoin:miter;stroke-opacity:1"
       d="M 1.894036,11.528274 C 2.3294598,10.463498 3.3404059,9.7561999 3.7256483,8.6529132 4.4565424,7.212151 5.4421595,5.9183379 6.0208536,4.402092 6.6143565,3.3406364 7.3542489,2.3460528 7.7769992,1.1975382 8.6156611,-0.00191795 10.136342,0.68412441 11.308258,0.75678227 12.4109,0.97562732 13.539195,0.93799198 14.65778,1.0544129 c 1.588984,0.1244472 3.184836,0.2967861 4.784302,0.272429 2.051683,0.1952104 4.084321,0.5281587 6.094524,0.9809846 1.078875,0.5926551 1.862184,1.628136 2.640934,2.5677298 0.931106,0.8782525 -0.109896,1.9603317 -0.547036,2.7927564 -1.197359,2.4436763 -3.116426,4.4255353 -4.474548,6.7718293 -1.07796,1.635187 -2.770733,2.701201 -4.269338,3.913688 -1.216264,0.888447 -2.743152,0.303585 -4.11797,0.433082 -1.668232,0.04151 -3.326423,-0.120137 -4.9834419,-0.26793 C 8.4695826,18.550787 7.1643022,18.180953 5.8733518,18.040828 4.5426893,17.919583 3.2233704,17.723425 1.9020899,17.615721 0.16699275,17.89565 0.02733194,16.120953 0.73372939,14.986914 1.2686786,13.881766 1.3282667,12.603024 1.894036,11.528274 Z"
       id="path116"
       inkscape:connector-curvature="0" />
    <path
       id="path988"
       d="m 12.302794,16.980192 a 1.319287,1.319287 0 0 1 -1.097069,-1.505149 l 0.144852,-0.926426 C 8.6916832,14.690668 8.4171959,12.954903 8.4171959,12.954903 8.1701216,11.820105 7.6109204,11.438461 7.6109204,11.438461 6.8663758,10.72916 7.7654489,10.886929 7.7654489,10.886929 c 0.9157281,0.214944 1.2599417,1.180826 1.2599417,1.180826 0.5944666,1.544533 1.9971704,1.353531 2.5616044,1.203274 C 11.7666,12.687695 12.072131,12.319417 12.37369,12.131177 10.36098,11.565614 8.3341206,10.423821 8.9076881,6.887235 9.0711292,5.8794628 9.565169,5.1146253 10.260979,4.5638611 c -0.058,-0.2485471 -0.221652,-1.238289 0.485488,-2.4282435 0,0 0.81561,-0.122143 2.385702,1.3580876 a 8.9733808,8.9733808 0 0 1 2.361075,0.064069 c 0.783298,0.1303903 1.557009,0.3607931 2.261599,0.6856402 1.956143,-0.9083417 2.690055,-0.5348966 2.690055,-0.5348966 0.29599,1.3533079 -0.172069,2.2405992 -0.305548,2.4574264 0.486827,0.7419016 0.711772,1.6240081 0.548329,2.6317804 -0.575035,3.5456484 -2.86151,3.9759434 -4.95359,3.8711374 0.284236,0.340371 0.488376,0.949407 0.348658,1.810901 -0.200392,1.235605 -0.286623,1.739091 -0.286623,1.739091 a 1.3199428,1.3199428 0 0 1 -1.515346,1.082128 z"
       inkscape:connector-curvature="0"
       style="stroke-width:0.01472783" />
  </g>
  <g
     inkscape:groupmode="layer"
     id="layer2"
     inkscape:label="Layer 4"
     transform="translate(0.17065492,0.00312935)"
     style="display:inline" />
</svg>
