<?xml version="1.0" encoding="UTF-8" standalone="no"?>
<!-- Created with Inkscape (http://www.inkscape.org/) -->

<svg
   xmlns:dc="http://purl.org/dc/elements/1.1/"
   xmlns:cc="http://creativecommons.org/ns#"
   xmlns:rdf="http://www.w3.org/1999/02/22-rdf-syntax-ns#"
   xmlns:svg="http://www.w3.org/2000/svg"
   xmlns="http://www.w3.org/2000/svg"
   xmlns:sodipodi="http://sodipodi.sourceforge.net/DTD/sodipodi-0.dtd"
   xmlns:inkscape="http://www.inkscape.org/namespaces/inkscape"
   width="43.947422mm"
   height="15.056219mm"
   viewBox="0 0 43.947422 15.056219"
   version="1.1"
   id="svg5964"
   sodipodi:docname="keyboard.svg"
   inkscape:version="0.92.2 5c3e80d, 2017-08-06">
  <defs
     id="defs5958" />
  <sodipodi:namedview
     id="base"
     pagecolor="#ffffff"
     bordercolor="#666666"
     borderopacity="1.0"
     inkscape:pageopacity="0.0"
     inkscape:pageshadow="2"
     inkscape:zoom="2.8"
     inkscape:cx="81.567817"
     inkscape:cy="35.595309"
     inkscape:document-units="mm"
     inkscape:current-layer="layer1"
     showgrid="false"
     fit-margin-top="0"
     fit-margin-left="0"
     fit-margin-right="0"
     fit-margin-bottom="0"
     inkscape:window-width="1128"
     inkscape:window-height="664"
     inkscape:window-x="249"
     inkscape:window-y="35"
     inkscape:window-maximized="0" />
  <metadata
     id="metadata5961">
    <rdf:RDF>
      <cc:Work
         rdf:about="">
        <dc:format>image/svg+xml</dc:format>
        <dc:type
           rdf:resource="http://purl.org/dc/dcmitype/StillImage" />
        <dc:title></dc:title>
      </cc:Work>
    </rdf:RDF>
  </metadata>
  <g
     inkscape:label="Layer 1"
     inkscape:groupmode="layer"
     id="layer1"
     transform="translate(-59.523321,-135.63551)">
    <path
       style="fill:#d5d1ac;fill-opacity:1;stroke:#000000;stroke-width:0.26458332px;stroke-linecap:butt;stroke-linejoin:miter;stroke-opacity:1"
       d="m 59.756369,144.5193 c 0.581706,-1.02028 1.112284,-2.25718 1.902367,-3.01915 0.568809,-0.84071 1.260739,-1.57423 1.893729,-2.40738 0.824299,-0.70788 1.268703,-1.55753 2.04247,-2.36943 0.788635,-1.18368 2.142094,-0.95729 3.427525,-0.89955 1.247521,0.18319 2.534776,0.10599 3.762522,0.39283 1.323694,-0.0894 2.62167,0.42894 3.975369,0.36375 1.339871,0.13871 2.693211,0.52052 3.987361,0.46278 1.863652,0.34578 3.875207,0.22638 5.797274,0.45138 1.473039,0.41718 3.077642,0.0732 4.579263,0.53107 1.301386,-0.0774 2.54282,0.14819 3.81936,0.27371 2.014145,-0.30465 4.008443,-0.0132 6.023001,-0.21869 0.84816,0.37984 2.65538,-0.20797 2.19277,1.33154 0.0201,1.05277 0.59817,2.41734 -0.43512,3.14423 -1.02622,0.92073 -1.65843,2.07208 -2.11265,3.34894 -0.628875,0.94563 -1.209542,2.06031 -1.770049,3.05043 -0.66822,1.11893 -0.748376,1.29933 -1.987805,1.50677 -1.260274,0.0973 -2.539323,0.16783 -3.778716,-0.0263 -1.007437,-0.18095 -1.692515,-0.0345 -2.671539,-0.3614 -1.524349,-0.17385 -2.999729,-0.56784 -4.532214,-0.67821 -1.062027,-0.1007 -2.112899,-0.17887 -3.17719,-0.0783 -1.507172,-0.12019 -2.908088,-0.64362 -4.427262,-0.82865 -1.234014,-0.22531 -2.385467,-0.28602 -3.5172,-0.62723 -1.042762,-0.3208 -2.138682,-0.46181 -3.213522,-0.53834 -1.192533,-0.38677 -2.345735,-0.92169 -3.637214,-0.90068 -0.637572,-0.0372 -1.45183,-0.0113 -2.176102,0.0959 -1.149444,0.1288 -2.298971,-0.30883 -3.395101,-0.56105 -0.92005,-0.10943 -2.943596,0.13696 -2.642839,-1.40264 l 0.07151,-0.0363 z"
       id="path6028"
       inkscape:connector-curvature="0" />
    <path
       style="fill:#d5d1ac;fill-opacity:1;stroke:#000000;stroke-width:0.26458332px;stroke-linecap:butt;stroke-linejoin:miter;stroke-opacity:1"
       d="m 103.17959,138.31433 c -0.25705,1.15372 -1.09007,1.82124 -1.5315,2.8463 -0.4889,0.9364 -0.9925,2.06949 -1.50486,3.01677 -0.398555,1.10175 -1.094465,1.48511 -1.602524,2.4814 0.01954,0.85737 -1.200539,1.92873 -0.955251,2.49777 0.270613,0.27222 0.551402,0.46482 0.570559,0.90049"
       id="path6030"
       inkscape:connector-curvature="0" />
    <path
       style="fill:#d5d1ac;fill-opacity:1;stroke:#000000;stroke-width:0.26458332px;stroke-linecap:butt;stroke-linejoin:miter;stroke-opacity:1"
       d="m 59.756369,144.5193 c 1.397203,0.24955 2.902855,0.0911 4.290706,0.56042 1.367909,0.0172 2.795219,0.52311 4.012274,0.72519 0.909514,0.2233 1.91492,0.46142 2.847318,0.54469 1.191371,0.17523 2.413532,0.50254 3.608705,0.58868 1.702016,0.094 3.36437,0.6181 5.107405,0.52691 1.310334,0.24584 2.670377,0.464 3.957364,0.68429 1.011099,-0.0267 1.960928,0.49184 2.968507,0.60172 1.229454,0.13409 2.467065,-0.0872 3.689734,0.11504 1.335334,0.22171 2.662085,-0.10537 3.986717,0.15624 0.963337,0.42884 2.642875,-0.32289 3.48123,0.53177 0.139494,0.17556 0.277539,0.3549 0.449023,0.50131"
       id="path6032"
       inkscape:connector-curvature="0" />
  </g>
</svg>
