<?xml version="1.0" encoding="UTF-8" standalone="no"?>
<!-- Created with Inkscape (http://www.inkscape.org/) -->

<svg
   xmlns:dc="http://purl.org/dc/elements/1.1/"
   xmlns:cc="http://creativecommons.org/ns#"
   xmlns:rdf="http://www.w3.org/1999/02/22-rdf-syntax-ns#"
   xmlns:svg="http://www.w3.org/2000/svg"
   xmlns="http://www.w3.org/2000/svg"
   xmlns:sodipodi="http://sodipodi.sourceforge.net/DTD/sodipodi-0.dtd"
   xmlns:inkscape="http://www.inkscape.org/namespaces/inkscape"
   viewBox="0 0 43.39613 13.356985"
   version="1.1"
   id="svg5964"
   sodipodi:docname="keyboard.svg"
   preserveAspectRatio="none"
   inkscape:version="0.92.2 5c3e80d, 2017-08-06"
   height="100%"
   width="100%">
  <defs
     id="defs5958" />
  <sodipodi:namedview
     id="base"
     pagecolor="#ffffff"
     bordercolor="#666666"
     borderopacity="1.0"
     inkscape:pageopacity="0.0"
     inkscape:pageshadow="2"
     inkscape:zoom="7.919596"
     inkscape:cx="-11.862218"
     inkscape:cy="10.278269"
     inkscape:document-units="mm"
     inkscape:current-layer="layer1"
     showgrid="false"
     inkscape:window-width="1128"
     inkscape:window-height="664"
     inkscape:window-x="61"
     inkscape:window-y="38"
     inkscape:window-maximized="0"
     fit-margin-top="0"
     fit-margin-left="0"
     fit-margin-right="0"
     fit-margin-bottom="0" />
  <metadata
     id="metadata5961">
    <rdf:RDF>
      <cc:Work
         rdf:about="">
        <dc:format>image/svg+xml</dc:format>
        <dc:type
           rdf:resource="http://purl.org/dc/dcmitype/StillImage" />
        <dc:title></dc:title>
      </cc:Work>
    </rdf:RDF>
  </metadata>
  <g
     inkscape:label="Layer 1"
     inkscape:groupmode="layer"
     id="layer1"
     transform="translate(-59.787296,-136.05499)">
    <path
       style="fill:#d5d1ac;fill-opacity:1;stroke:#000000;stroke-width:0.26456693;stroke-linecap:butt;stroke-linejoin:miter;stroke-miterlimit:4;stroke-dasharray:none;stroke-opacity:1"
       d="m 59.994601,146.66028 c 0.478327,-1.07264 0.884426,-2.35581 1.595572,-3.19193 0.48319,-0.89267 1.099465,-1.69081 1.647267,-2.58229 0.750525,-0.78566 1.109035,-1.67498 1.799023,-2.55918 0.229999,-0.43223 0.812749,-1.0324 0.812749,-1.0324 0.704743,0.002 1.666873,-0.15517 2.509442,-0.20055 1.2595,0.0594 2.532881,-0.14433 3.78292,0.0201 1.308436,-0.21945 2.651179,0.16849 3.991864,-0.0298 1.347017,0.006 2.731398,0.25257 4.013558,0.0676 1.888656,0.16044 3.878655,-0.15656 5.813537,-0.12213 1.506981,0.26998 3.069874,-0.23046 4.609309,0.0772 1.287425,-0.20524 2.545045,-0.10312 3.82774,-0.10404 1.974318,-0.50165 3.98763,-0.40818 5.972128,-0.81119 0.88147,0.29441 2.62197,-0.46863 2.31332,1.10897 0.12372,1.04566 0.83348,2.34662 -0.12314,3.17179 -0.9305,1.01739 -1.44616,2.22544 -1.77234,3.54085 -0.53261,1.00301 -1.000605,2.16948 -1.460809,3.21002 -0.554697,1.17933 -0.616686,1.36675 -1.829638,1.69534 -1.244548,0.22103 -2.510422,0.41725 -3.762912,0.34623 -1.020365,-0.0808 -1.687678,0.13244 -2.69415,-0.0964 -1.53406,-0.0227 -3.041086,-0.26946 -4.576988,-0.22826 -1.066782,0.004 -2.120244,0.0302 -3.169441,0.23519 -1.511679,0.0289 -2.957359,-0.35389 -4.487374,-0.38832 -1.25021,-0.10259 -2.402042,-0.0495 -3.561892,-0.27756 -1.069299,-0.21647 -2.173782,-0.24879 -3.250932,-0.21903 -1.224843,-0.26735 -2.425148,-0.68603 -3.708269,-0.53785 -0.638122,0.0262 -1.445877,0.13182 -2.156059,0.30988 -1.131156,0.24145 -2.318216,-0.0808 -3.433865,-0.22374 -0.926357,-0.0182 -2.91577,0.42639 -2.768204,-1.13536 l 0.06758,-0.0432 z"
       id="path6028"
       inkscape:connector-curvature="0"
       sodipodi:nodetypes="ccccccccccccccccccccccccccccccc" />
    <path
       style="fill:#d5d1ac;fill-opacity:1;stroke:#000000;stroke-width:0.26458332px;stroke-linecap:butt;stroke-linejoin:miter;stroke-opacity:1"
       d="m 102.59495,136.2062 c -0.14209,1.17343 -0.90528,1.91979 -1.24354,2.98337 -0.39424,0.98002 -0.78372,2.15723 -1.20024,3.15039 -0.288035,1.13567 -0.942779,1.58574 -1.350181,2.62725 0.103932,0.85128 -1.004621,2.03765 -0.704448,2.57975 0.296122,0.24423 0.594525,0.40821 0.656524,0.83988"
       id="path6030"
       inkscape:connector-curvature="0" />
    <path
       style="fill:#d5d1ac;fill-opacity:1;stroke:#000000;stroke-width:0.26458332px;stroke-linecap:butt;stroke-linejoin:miter;stroke-opacity:1"
       d="m 59.994601,146.66028 c 1.414994,0.11064 2.897696,-0.19549 4.325048,0.13485 1.362943,-0.11775 2.833164,0.24509 4.064211,0.32625 0.927092,0.13258 1.95107,0.27046 2.887135,0.26144 1.20284,0.057 2.451308,0.26223 3.649154,0.23019 1.702991,-0.0742 3.408906,0.28353 5.134468,0.021 1.328183,0.11552 2.703105,0.19858 4.005537,0.29097 1.003544,-0.12621 1.999853,0.29619 3.013355,0.30625 1.236685,0.0123 2.446463,-0.32989 3.683111,-0.24914 1.350682,0.089 2.638742,-0.36721 3.982709,-0.2374 1.000908,0.33181 2.598189,-0.58178 3.516688,0.1861 0.156117,0.16096 0.311164,0.32583 0.496242,0.45462"
       id="path6032"
       inkscape:connector-curvature="0" />
  </g>
</svg>
