<?xml version="1.0" encoding="UTF-8" standalone="no"?>
<!-- Created with Inkscape (http://www.inkscape.org/) -->

<svg
   xmlns:dc="http://purl.org/dc/elements/1.1/"
   xmlns:cc="http://creativecommons.org/ns#"
   xmlns:rdf="http://www.w3.org/1999/02/22-rdf-syntax-ns#"
   xmlns:svg="http://www.w3.org/2000/svg"
   xmlns="http://www.w3.org/2000/svg"
   xmlns:sodipodi="http://sodipodi.sourceforge.net/DTD/sodipodi-0.dtd"
   xmlns:inkscape="http://www.inkscape.org/namespaces/inkscape"
   viewBox="0 0 29.223714 19.360608"
   version="1.1"
   id="svg6630"
   sodipodi:docname="linkedinkey1.svg"
   inkscape:version="0.92.2 5c3e80d, 2017-08-06"
   preserveAspectRatio="none"
   height="100%"
   width="100%">
  <defs
     id="defs6624" />
  <sodipodi:namedview
     id="base"
     pagecolor="#ffffff"
     bordercolor="#666666"
     borderopacity="1.0"
     inkscape:pageopacity="0.0"
     inkscape:pageshadow="2"
     inkscape:zoom="22.4"
     inkscape:cx="14.675319"
     inkscape:cy="9.3682688"
     inkscape:document-units="mm"
     inkscape:current-layer="layer2"
     showgrid="false"
     inkscape:window-width="1144"
     inkscape:window-height="700"
     inkscape:window-x="26"
     inkscape:window-y="45"
     inkscape:window-maximized="0"
     fit-margin-top="0"
     fit-margin-left="0"
     fit-margin-right="0"
     fit-margin-bottom="0"
     inkscape:snap-global="false" />
  <metadata
     id="metadata6627">
    <rdf:RDF>
      <cc:Work
         rdf:about="">
        <dc:format>image/svg+xml</dc:format>
        <dc:type
           rdf:resource="http://purl.org/dc/dcmitype/StillImage" />
        <dc:title></dc:title>
      </cc:Work>
    </rdf:RDF>
  </metadata>
  <g
     inkscape:groupmode="layer"
     id="layer1"
     inkscape:label="Layer 3"
     transform="translate(0.17065492,0.00312935)"
     style="display:inline"
     sodipodi:insensitive="true">
    <path
       style="fill:#0077b7;fill-opacity:1;stroke:#000000;stroke-width:1px;stroke-linecap:butt;stroke-linejoin:miter;stroke-opacity:1"
       d="M 1.894036,11.528274 C 2.3294598,10.463498 3.3404059,9.7561999 3.7256483,8.6529132 4.4565424,7.212151 5.4421595,5.9183379 6.0208536,4.402092 6.6143565,3.3406364 7.3542489,2.3460528 7.7769992,1.1975382 8.6156611,-0.00191795 10.136342,0.68412441 11.308258,0.75678227 12.4109,0.97562732 13.539195,0.93799198 14.65778,1.0544129 c 1.588984,0.1244472 3.184836,0.2967861 4.784302,0.272429 2.051683,0.1952104 4.084321,0.5281587 6.094524,0.9809846 1.078875,0.5926551 1.862184,1.628136 2.640934,2.5677298 0.931106,0.8782525 -0.109896,1.9603317 -0.547036,2.7927564 -1.197359,2.4436763 -3.116426,4.4255353 -4.474548,6.7718293 -1.07796,1.635187 -2.770733,2.701201 -4.269338,3.913688 -1.216264,0.888447 -2.743152,0.303585 -4.11797,0.433082 -1.668232,0.04151 -3.326423,-0.120137 -4.9834419,-0.26793 C 8.4695826,18.550787 7.1643022,18.180953 5.8733518,18.040828 4.5426893,17.919583 3.2233704,17.723425 1.9020899,17.615721 0.16699275,17.89565 0.02733194,16.120953 0.73372939,14.986914 1.2686786,13.881766 1.3282667,12.603024 1.894036,11.528274 Z"
       id="path116"
       inkscape:connector-curvature="0" />
  </g>
  <g
     inkscape:groupmode="layer"
     id="layer5"
     inkscape:label="Layer 5"
     style="display:inline"
     sodipodi:insensitive="true">
    <rect
       style="fill:#ffffff;fill-opacity:1;fill-rule:evenodd;stroke:none;stroke-width:0.10722223;stroke-miterlimit:4;stroke-dasharray:none;stroke-opacity:1"
       id="rect4628"
       width="11.989498"
       height="11.584449"
       x="9.6594725"
       y="0.64868277"
       transform="rotate(11.785542)" />
  </g>
  <g
     inkscape:groupmode="layer"
     id="layer2"
     inkscape:label="Layer 4"
     transform="translate(0.17065492,0.00312935)"
     style="display:inline">
    <g
       id="g4609"
       transform="matrix(0.03650176,0.00761601,-0.00761601,0.03650176,8.3352627,1.1033149)">
      <path
         id="path4554"
         d="M 347.445,0 H 34.555 C 15.471,0 0,15.471 0,34.555 V 347.444 C 0,366.529 15.471,382 34.555,382 H 347.444 C 366.529,382 382,366.529 382,347.444 V 34.555 C 382,15.471 366.529,0 347.445,0 Z M 118.207,329.844 c 0,5.554 -4.502,10.056 -10.056,10.056 H 65.345 c -5.554,0 -10.056,-4.502 -10.056,-10.056 V 150.403 c 0,-5.554 4.502,-10.056 10.056,-10.056 h 42.806 c 5.554,0 10.056,4.502 10.056,10.056 z M 86.748,123.432 c -22.459,0 -40.666,-18.207 -40.666,-40.666 0,-22.459 18.207,-40.666 40.666,-40.666 22.459,0 40.666,18.207 40.666,40.666 0,22.459 -18.206,40.666 -40.666,40.666 z M 341.91,330.654 c 0,5.106 -4.14,9.246 -9.246,9.246 H 286.73 c -5.106,0 -9.246,-4.14 -9.246,-9.246 v -84.168 c 0,-12.556 3.683,-55.021 -32.813,-55.021 -28.309,0 -34.051,29.066 -35.204,42.11 v 97.079 c 0,5.106 -4.139,9.246 -9.246,9.246 h -44.426 c -5.106,0 -9.246,-4.14 -9.246,-9.246 V 149.593 c 0,-5.106 4.14,-9.246 9.246,-9.246 h 44.426 c 5.106,0 9.246,4.14 9.246,9.246 v 15.655 c 10.497,-15.753 26.097,-27.912 59.312,-27.912 73.552,0 73.131,68.716 73.131,106.472 z"
         style="fill:#0077b7"
         inkscape:connector-curvature="0" />
      <g
         id="g4556" />
      <g
         id="g4558" />
      <g
         id="g4560" />
      <g
         id="g4562" />
      <g
         id="g4564" />
      <g
         id="g4566" />
      <g
         id="g4568" />
      <g
         id="g4570" />
      <g
         id="g4572" />
      <g
         id="g4574" />
      <g
         id="g4576" />
      <g
         id="g4578" />
      <g
         id="g4580" />
      <g
         id="g4582" />
      <g
         id="g4584" />
    </g>
  </g>
</svg>
